<?xml version="1.0" standalone="no"?>
<!DOCTYPE svg PUBLIC "-//W3C//DTD SVG 1.1//EN" "http://www.w3.org/Graphics/SVG/1.1/DTD/svg11.dtd" >
<svg xmlns="http://www.w3.org/2000/svg">
<metadata></metadata>
<defs>
<font id="bloom_speak_otheavy" horiz-adv-x="1015" >
<font-face units-per-em="2048" ascent="1597" descent="-451" />
<missing-glyph horiz-adv-x="419" />
<glyph horiz-adv-x="0" />
<glyph horiz-adv-x="0" />
<glyph horiz-adv-x="682" />
<glyph unicode="&#xd;" horiz-adv-x="419" />
<glyph unicode=" "  horiz-adv-x="419" />
<glyph unicode="&#x09;" horiz-adv-x="419" />
<glyph unicode="&#xa0;" horiz-adv-x="419" />
<glyph unicode="!" horiz-adv-x="542" d="M179 80v65q0 40 26 66.5t66 26.5t66.5 -26.5t26.5 -66.5v-65q0 -40 -26.5 -66t-66.5 -26t-66 26t-26 66zM179 395v834q0 40 26 66t66 26t66.5 -26t26.5 -66v-834q0 -40 -26.5 -66t-66.5 -26t-66 26t-26 66z" />
<glyph unicode="&#x22;" horiz-adv-x="727" d="M138 905v324q0 40 26 66t66 26t66.5 -26t26.5 -66v-324q0 -40 -26.5 -66t-66.5 -26t-66 26t-26 66zM404 905v324q0 40 26.5 66t66.5 26t66 -26t26 -66v-324q0 -40 -26 -66t-66 -26t-66.5 26t-26.5 66z" />
<glyph unicode="#" horiz-adv-x="1204" d="M179 379q0 40 26 65t66 25h78l17 127h-54q-39 0 -65.5 24.5t-26.5 63.5t26.5 64.5t65.5 25.5h78l31 221q5 33 29.5 54.5t60.5 21.5q46 0 73.5 -25t21.5 -71l-27 -201h94l33 223q5 34 27.5 54t58.5 20q45 0 73 -27t21 -77l-27 -193h74q39 0 65.5 -25.5t26.5 -64.5 q0 -40 -25.5 -64t-66.5 -24h-100l-17 -127h76q40 0 66 -25t26 -65q0 -39 -26 -63.5t-66 -24.5h-100l-32 -210q-6 -41 -27.5 -61t-63.5 -20q-45 0 -71 26t-20 73l27 192h-96l-29 -215q-11 -76 -92 -76q-42 0 -68.5 26t-20.5 73l26 192h-54q-39 0 -65.5 24.5t-26.5 63.5z M534 469h96l16 127h-94z" />
<glyph unicode="$" horiz-adv-x="1001" d="M97 199q0 37 27 61.5t63 24.5q17 0 27 -4q13 -5 56 -36.5t96.5 -55t113.5 -23.5q106 0 170 57.5t64 149.5q0 40 -20 73.5t-54 59t-77.5 49.5t-92 47.5t-97 49t-92 58t-77.5 70.5t-54 91t-20 116q0 134 87.5 224.5t219.5 109.5v20q0 41 25.5 67t66.5 26q40 0 65.5 -26 t25.5 -67v-22q26 -5 55.5 -13.5t65.5 -24.5t64 -34.5t47 -45.5t19 -56q0 -38 -26 -65t-62 -27q-37 0 -57 18q-98 84 -205 84q-81 0 -140.5 -48.5t-59.5 -119.5q0 -51 32 -92t83.5 -70.5t113.5 -57.5t124.5 -62.5t114 -76.5t83.5 -107.5t32 -147.5q0 -139 -76 -237t-208 -132 v-31q0 -39 -26 -66.5t-65 -27.5q-40 0 -66 27.5t-26 66.5v17q-33 3 -69 12q-84 22 -164.5 68.5t-100.5 99.5q-6 15 -6 29z" />
<glyph unicode="%" horiz-adv-x="1632" d="M97 965q0 163 75 262.5t194 99.5q120 0 195 -100t75 -262q0 -166 -73.5 -261.5t-196.5 -95.5q-121 0 -195 96t-74 261zM237 965q0 -105 35 -167.5t94 -62.5q60 0 95.5 62t35.5 168q0 101 -33.5 168t-97.5 67q-57 0 -93 -65t-36 -170zM345 72q0 25 23 61l800 1155 q23 33 63 33q30 0 51.5 -21t21.5 -51q0 -25 -23 -61l-801 -1155q-22 -33 -62 -33q-30 0 -51.5 21t-21.5 51zM996 350q0 163 75 263t194 100q120 0 195 -100.5t75 -262.5q0 -166 -73.5 -261t-196.5 -95q-122 0 -195.5 95.5t-73.5 260.5zM1136 350q0 -105 35 -167t94 -62 q60 0 95.5 61.5t35.5 167.5q0 101 -33.5 168.5t-97.5 67.5q-57 0 -93 -65.5t-36 -170.5z" />
<glyph unicode="&#x26;" horiz-adv-x="1503" d="M179 385q0 63 19 117t54 95.5t72.5 71.5t86.5 60q-25 32 -41 55.5t-36.5 59.5t-31 72.5t-10.5 72.5q0 142 96 237t238 95q136 0 232.5 -95.5t96.5 -230.5q0 -66 -19 -118.5t-56 -91.5t-76.5 -66t-95.5 -55l217 -263q41 69 41 127q0 41 24 67t66 26q40 0 67 -26.5 t27 -66.5q0 -52 -25.5 -125t-70.5 -145q100 -80 176 -80q40 0 67 -21t27 -65q0 -42 -23.5 -67t-72.5 -25q-16 0 -40 4t-65.5 14.5t-92 37t-97.5 65.5q-157 -133 -342 -133q-175 0 -293.5 114t-118.5 283zM370 385q0 -97 68 -158t153 -61q111 0 215 86l-272 336 q-80 -41 -122 -87t-42 -116zM482 989q0 -51 74 -145l29 -35q45 23 71 38t54.5 38t41.5 50t13 60q0 67 -33.5 107.5t-105.5 40.5q-144 0 -144 -154z" />
<glyph unicode="'" horiz-adv-x="460" d="M138 905v324q0 40 26 66t66 26t66.5 -26t26.5 -66v-324q0 -40 -26.5 -66t-66.5 -26t-66 26t-26 66z" />
<glyph unicode="(" horiz-adv-x="858" d="M179 535q0 116 17.5 223t43.5 185t63.5 150t69.5 117t69.5 85t56 56t35.5 29q24 17 51 17q40 0 67 -27t27 -67q0 -50 -51 -86q-7 -4 -28.5 -22t-63.5 -72.5t-77 -126.5t-62 -195t-27 -266q0 -97 13.5 -182t33 -143t47 -106.5t51.5 -76.5t50.5 -50t39 -29t21.5 -11 q51 -25 51 -84q0 -42 -26.5 -66.5t-67.5 -24.5q-23 0 -41 9q-10 4 -23.5 10.5t-52 34t-72 62t-75 97.5t-71 137.5t-49.5 185t-20 237.5z" />
<glyph unicode=")" horiz-adv-x="858" d="M179 1303q0 40 27 67t67 27q28 0 52 -17q17 -13 35.5 -29t55.5 -56t69 -85t69.5 -116.5t63.5 -150t43.5 -185.5t17.5 -223q0 -127 -20 -237.5t-49.5 -185t-71 -137.5t-75 -97.5t-72 -62t-52 -34t-23.5 -10.5q-18 -9 -41 -9q-41 0 -67.5 24.5t-26.5 66.5q0 59 51 84 q9 4 21.5 11t39 29t50.5 50t51.5 76.5t47 106.5t33 143t13.5 182q0 143 -27 266t-62 195t-77 126.5t-63.5 72.5t-28.5 22q-51 36 -51 86z" />
<glyph unicode="*" horiz-adv-x="880" d="M97 1057q0 38 27 66t63 28q6 0 19 -3l12 -3l129 -49v133q0 40 26 66t66 26t65 -26t25 -66v-135q13 5 52.5 21.5t67 26t44.5 9.5q36 0 63 -28t27 -66q0 -28 -17.5 -51t-41.5 -33l-141 -53l94 -125q20 -29 20 -54q0 -39 -28 -65.5t-66 -26.5q-31 0 -51 15q-16 12 -36 38 t-43.5 61t-35.5 50l-92 -125q-28 -39 -74 -39q-37 0 -62.5 27t-27.5 65q0 29 21 56l94 125l-141 51q-24 9 -41 32.5t-17 51.5z" />
<glyph unicode="+" horiz-adv-x="1218" d="M169 494q0 39 26 63.5t66 24.5h256v258q0 40 26 66t66 26t66 -26t26 -66v-258h256q40 0 66.5 -24.5t26.5 -63.5q0 -40 -26.5 -65.5t-66.5 -25.5h-256v-262q0 -40 -26 -66t-66 -26t-66 26t-26 66v262h-256q-40 0 -66 25.5t-26 65.5z" />
<glyph unicode="," horiz-adv-x="567" d="M128 -115q0 31 27 66q29 36 39 71.5t10 122.5q0 40 26 66.5t66 26.5t66 -26.5t26 -66.5v-12q0 -27 -3 -57t-11.5 -78t-31.5 -95.5t-56 -80.5q-27 -27 -66 -27q-40 0 -66 24.5t-26 65.5z" />
<glyph unicode="-" horiz-adv-x="983" d="M179 492q0 40 26 65t66 25h441q40 0 66 -25t26 -65q0 -39 -26 -64t-66 -25h-441q-40 0 -66 25t-26 64z" />
<glyph unicode="." horiz-adv-x="460" d="M138 80v65q0 40 26 66.5t66 26.5t66.5 -26.5t26.5 -66.5v-65q0 -40 -26.5 -66t-66.5 -26t-66 26t-26 66z" />
<glyph unicode="/" horiz-adv-x="829" d="M77 -90q0 9 6 27q332 879 498 1318q22 56 86 56q40 0 63 -27.5t23 -58.5q0 -5 -7 -29l-493 -1319q-9 -25 -32 -41t-52 -16q-43 0 -67.5 27t-24.5 63z" />
<glyph unicode="0" horiz-adv-x="1146" d="M92 653q0 313 129.5 496.5t351.5 183.5q224 0 353 -183.5t129 -496.5q0 -314 -128.5 -489.5t-353.5 -175.5q-224 0 -352.5 176t-128.5 489zM283 653q0 -225 77.5 -356t212.5 -131q134 0 212.5 131.5t78.5 355.5q0 227 -79 364.5t-212 137.5q-134 0 -212 -137t-78 -365z " />
<glyph unicode="1" horiz-adv-x="651" d="M102 1090q0 55 41 79l209 138q28 14 54 14q40 0 66 -26t26 -66v-1137q0 -39 -26.5 -65.5t-65.5 -26.5q-40 0 -66.5 26t-26.5 66v975l-67 -53q-26 -15 -49 -15q-40 0 -67.5 26.5t-27.5 64.5z" />
<glyph unicode="2" horiz-adv-x="972" d="M92 90q0 59 33 127t85.5 131.5t116 129t127 129t116 122.5t85.5 118t33 107q0 49 -14 86t-35 58.5t-49.5 34.5t-53.5 17.5t-51 4.5q-95 0 -217 -76q-27 -16 -49 -16q-40 0 -67 27t-27 65q0 50 49 82q40 26 73 43.5t99 35t139 17.5q30 0 59 -2.5t70 -12t75.5 -25.5 t70.5 -45t61.5 -67.5t41.5 -97t16 -129.5q0 -44 -12.5 -88.5t-40.5 -91t-54 -84t-72.5 -87.5t-75.5 -79.5t-84 -83t-77 -75.5q-113 -113 -156 -187h481q40 0 66.5 -24.5t26.5 -63.5t-26.5 -64.5t-66.5 -25.5h-604q-40 0 -66 25t-26 65z" />
<glyph unicode="3" horiz-adv-x="1005" d="M92 170q0 39 28.5 65.5t65.5 26.5q21 0 37.5 -10t34 -24t41.5 -28t72.5 -24t115.5 -10q97 0 166.5 61t69.5 144q0 56 -24.5 98t-65.5 64.5t-86 33.5t-94 11h-47q-43 0 -68 24t-25 64q0 39 26.5 64.5t66.5 25.5h47q61 0 116 19t95.5 66.5t40.5 114.5q0 50 -17 87.5 t-41.5 58t-57 33.5t-58 16.5t-50.5 3.5q-96 0 -205 -76q-19 -16 -51 -16q-39 0 -65.5 26.5t-26.5 65.5q0 42 37 74q35 33 120.5 68.5t190.5 35.5q181 0 297.5 -98t116.5 -279q0 -58 -17 -107t-38.5 -78.5t-49.5 -52.5t-42.5 -30.5t-24.5 -11.5q8 -2 24 -8.5t46.5 -28.5 t56 -53t44.5 -88t19 -127q0 -159 -127.5 -271t-298.5 -112q-77 0 -145 14t-112 34.5t-66 34t-33 23.5q-21 21 -30 37t-9 39z" />
<glyph unicode="4" horiz-adv-x="1056" d="M51 408q0 20 15 48q110 205 263.5 423t325.5 417q22 25 68 25q38 0 64 -26t26 -60q0 -43 -31 -74q-143 -144 -273.5 -318.5t-219.5 -344.5h360v309q0 40 26 66t66 26t66.5 -26t26.5 -66v-309h49q40 0 66 -25t26 -65q0 -39 -26 -64t-66 -25h-49v-227q0 -40 -26.5 -66 t-66.5 -26t-66 26t-26 66v227h-504q-47 0 -70.5 27.5t-23.5 61.5z" />
<glyph unicode="5" horiz-adv-x="985" d="M92 166q0 36 28 65t62 29q39 0 64 -22q14 -12 34 -25t69.5 -30t101.5 -17q48 0 91 16t79.5 48t58.5 88.5t22 130.5q0 103 -71.5 173t-179.5 70q-97 0 -183 -55q-22 -16 -55 -16q-35 0 -60.5 22.5t-29.5 65.5v524q0 39 26 63.5t66 24.5h516q40 0 66 -24.5t26 -63.5 q0 -40 -26 -65t-66 -25h-424v-297q74 24 144 24q190 0 316 -119.5t126 -301.5q0 -97 -27 -176.5t-71 -131.5t-102.5 -87t-119 -50.5t-122.5 -15.5q-65 0 -125 13t-102 34t-62.5 33.5t-34.5 23.5q-35 30 -35 74z" />
<glyph unicode="6" horiz-adv-x="1056" d="M92 600q0 382 115.5 557.5t365.5 175.5q57 0 109 -10t85.5 -23.5t61 -29.5t39 -26t15.5 -15q32 -28 32 -72q0 -37 -23 -63.5t-61 -26.5q-31 0 -83 35q-76 53 -175 53q-41 0 -73.5 -7.5t-70 -33t-64.5 -68t-48.5 -118.5t-30.5 -178q100 129 276 129q88 0 159.5 -28.5 t116 -73t74 -102.5t41.5 -114t12 -111q0 -59 -12 -118t-42.5 -122.5t-77 -111.5t-122 -79t-170.5 -31q-214 0 -331.5 159t-117.5 453zM307 450q0 -51 12.5 -98.5t38.5 -90.5t73 -69t110 -26q62 0 109 26t73 69t38.5 90.5t12.5 98.5q0 42 -12.5 83.5t-38 80t-73 62.5 t-109.5 24t-109.5 -24t-73.5 -62.5t-38.5 -80t-12.5 -83.5z" />
<glyph unicode="7" horiz-adv-x="935" d="M31 1233q0 39 26 63.5t66 24.5h690q41 0 66.5 -24.5t25.5 -67.5q0 -111 -211 -486q-268 -474 -268 -651q0 -40 -26 -66t-66 -26t-66 26t-26 66q0 74 25.5 166.5t76 201.5t90.5 185.5t103 188.5q126 225 159 309h-573q-40 0 -66 25t-26 65z" />
<glyph unicode="8" horiz-adv-x="1075" d="M92 381q0 95 44.5 176.5t117.5 140.5q-127 78 -127 260q0 85 29 152.5t73 108t100.5 67.5t108 37t99.5 10q79 0 151 -22.5t132 -66.5t96 -118t36 -168q0 -148 -145 -284q85 -45 130.5 -123.5t45.5 -169.5q0 -189 -116 -291t-330 -102q-199 0 -322 106t-123 287zM283 381 q0 -55 22.5 -98t60 -67.5t81 -37t90.5 -12.5q38 0 72.5 6t69 21t59 38.5t40 62t15.5 87.5q0 51 -25.5 90t-68.5 61.5t-86 35t-91 18.5l-92 12q-59 -6 -103 -66t-44 -151zM317 958q0 -195 308 -213q49 9 93 74.5t44 138.5q0 54 -22.5 94.5t-58.5 61.5t-72 31t-72 10 q-34 0 -69.5 -10t-70.5 -31t-57.5 -61.5t-22.5 -94.5z" />
<glyph unicode="9" horiz-adv-x="1056" d="M92 871q0 58 13 118t45 122.5t78.5 111t121 79.5t166.5 31q214 0 331.5 -159t117.5 -453q0 -382 -116 -557.5t-366 -175.5q-57 0 -109 10t-85.5 23.5t-60.5 30t-38.5 26t-15.5 14.5q-33 29 -33 72q0 37 23 63.5t61 26.5q31 0 84 -35q76 -53 174 -53q41 0 74 7.5t70 33 t64 68t49 118.5t30 178q-100 -129 -275 -129q-85 0 -155.5 27.5t-115.5 71.5t-75.5 101.5t-43.5 114.5t-13 114zM283 870q0 -42 12.5 -83.5t38 -79.5t73 -62t109.5 -24t109.5 24t73.5 62.5t38.5 80t12.5 83.5q0 51 -12.5 98.5t-38.5 90.5t-73 69t-110 26q-62 0 -109 -26 t-73 -69t-38.5 -91t-12.5 -99z" />
<glyph unicode=":" horiz-adv-x="460" d="M138 80v65q0 40 26 66.5t66 26.5t66.5 -26.5t26.5 -66.5v-65q0 -40 -26.5 -66t-66.5 -26t-66 26t-26 66zM138 819v66q0 40 26 66t66 26t66.5 -26t26.5 -66v-66q0 -40 -26.5 -66t-66.5 -26t-66 26t-26 66z" />
<glyph unicode=";" horiz-adv-x="528" d="M128 -141q0 38 27 65q31 31 41 73t10 122q0 40 25 66t65 26t67 -26t27 -66v-13q0 -26 -3 -57t-12.5 -78.5t-32.5 -95t-56 -80.5q-26 -26 -66 -26t-66 25t-26 65zM206 819v66q0 40 26 66t66 26t66 -26t26 -66v-66q0 -40 -26 -66t-66 -26t-66 26t-26 66z" />
<glyph unicode="&#x3c;" horiz-adv-x="1218" d="M167 489q0 30 13 47.5t40 32.5l696 359q24 12 50 12q36 0 61 -27.5t25 -66.5q0 -53 -56 -80l-540 -277l542 -284q22 -12 36 -35t14 -49q0 -37 -29.5 -62.5t-61.5 -25.5q-19 0 -43 12l-694 365q-30 16 -41.5 32t-11.5 47z" />
<glyph unicode="=" horiz-adv-x="1218" d="M167 358q0 39 26 63.5t66 24.5h700q40 0 66.5 -24.5t26.5 -63.5t-26.5 -64.5t-66.5 -25.5h-700q-40 0 -66 25t-26 65zM167 641q0 40 26 65t66 25h700q40 0 66.5 -24.5t26.5 -63.5t-26.5 -64.5t-66.5 -25.5h-700q-40 0 -66 24.5t-26 63.5z" />
<glyph unicode="&#x3e;" horiz-adv-x="1218" d="M167 846q0 39 25 66.5t61 27.5q25 0 49 -12q465 -240 696 -359q28 -15 41 -32.5t13 -47.5q0 -31 -11.5 -47t-42.5 -32l-694 -365q-24 -12 -43 -12q-32 0 -61 25.5t-29 62.5q0 26 13.5 49t35.5 35l543 284l-541 277q-55 27 -55 80z" />
<glyph unicode="?" horiz-adv-x="1052" d="M159 1147q0 40 35 67q5 5 16.5 14t41 26t63.5 31t85.5 25t104.5 11q166 0 277.5 -111.5t111.5 -283.5q0 -70 -25.5 -128.5t-63.5 -94.5t-83 -73t-83 -67t-63.5 -73.5t-25.5 -94.5q0 -40 -26 -66t-66 -26t-66 26t-26 66q0 66 15.5 118t49.5 94.5t58.5 65t72.5 60.5l23 19 q31 25 45.5 38t35 36t29 47t8.5 53q0 95 -55 156t-143 61q-95 0 -195 -70q-27 -18 -61 -18q-39 0 -64.5 26.5t-25.5 65.5zM366 80v65q0 40 26 66.5t66 26.5t66 -26.5t26 -66.5v-65q0 -40 -26 -66t-66 -26t-66 26t-26 66z" />
<glyph unicode="@" horiz-adv-x="1505" d="M97 651q0 181 90 335.5t243.5 244.5t334.5 90q297 0 470 -155t173 -423q0 -101 -50.5 -195.5t-141.5 -156t-197 -61.5q-47 0 -85 19.5t-54 51.5q-75 -71 -187 -71q-121 0 -189.5 70.5t-68.5 189.5q0 77 28 155t76.5 142t123 104.5t159.5 40.5q51 0 114.5 -20.5 t102.5 -50.5t39 -74q0 -11 -31.5 -177.5t-31.5 -187.5q0 -16 12 -16q21 0 59 18q57 28 95.5 87t38.5 132q0 180 -123.5 290t-331.5 110q-128 0 -239 -67.5t-175.5 -181t-64.5 -243.5q0 -128 64.5 -240t175.5 -178.5t239 -66.5q140 0 281 98q16 12 45 12q38 0 64 -27.5 t26 -66.5q0 -44 -45 -80q-79 -55 -176 -84.5t-195 -29.5q-181 0 -334.5 88t-243.5 241t-90 334zM624 590q0 -33 19 -58.5t50 -25.5q82 0 148 63l47 267q-38 20 -66 20q-57 0 -103.5 -41.5t-70.5 -102t-24 -122.5z" />
<glyph unicode="A" horiz-adv-x="1144" d="M36 84q0 15 4 27q38 138 181 561t233 590q18 33 43.5 46t74.5 13q91 0 121 -64q75 -159 221 -578.5t191 -567.5q4 -12 4 -27q0 -38 -25.5 -61t-70.5 -23q-34 0 -51.5 14t-28.5 45q-30 78 -107 320h-512q-16 -50 -49.5 -165.5t-48.5 -154.5q-21 -59 -90 -59q-44 0 -67 23 t-23 61zM378 557h391q-106 327 -197 547q-76 -185 -194 -547z" />
<glyph unicode="B" horiz-adv-x="1101" d="M179 92v1141q0 40 25 64t65 24h242q218 0 328 -91t110 -265q0 -77 -35 -148.5t-102 -118.5q92 -41 142.5 -126t50.5 -191q0 -77 -21.5 -138.5t-53.5 -100.5t-80.5 -67.5t-90 -42.5t-96 -21.5t-84.5 -9t-68 -1.5h-238q-40 0 -67 26t-27 66zM364 178h147q22 0 42.5 1 t52.5 5.5t58.5 12.5t55.5 23.5t48.5 36t32.5 52.5t13 72q0 199 -252 199h-198v-402zM364 758h180q102 0 158.5 47.5t56.5 144.5q0 193 -254 193h-141v-385z" />
<glyph unicode="C" horiz-adv-x="1218" d="M97 659q0 142 46.5 267.5t126.5 214.5t191.5 140.5t237.5 51.5q139 0 237 -34.5t146 -73.5q39 -31 39 -78q0 -37 -28 -63.5t-62 -26.5q-31 0 -55 18q-108 80 -277 80q-176 0 -293.5 -143t-117.5 -353q0 -211 111.5 -352t281.5 -141q140 0 287 82q28 14 49 14 q37 0 64.5 -29t27.5 -65q0 -52 -39 -74q-204 -106 -389 -106q-165 0 -298.5 87t-209.5 240.5t-76 343.5z" />
<glyph unicode="D" horiz-adv-x="1304" d="M179 92v1139q0 40 25 65t65 25h348q172 0 306.5 -85.5t209 -237t74.5 -343.5q0 -189 -74.5 -338t-209 -233t-306.5 -84h-348q-40 0 -65 26t-25 66zM364 178h253q182 0 291 132.5t109 344.5q0 215 -109 351.5t-291 136.5h-253v-965z" />
<glyph unicode="E" horiz-adv-x="1024" d="M179 90v1143q0 40 25 64t65 24h518q40 0 65.5 -24.5t25.5 -63.5q0 -40 -25.5 -65t-65.5 -25h-423v-361h391q40 0 65 -24t25 -64t-25 -65t-65 -25h-391v-426h462q40 0 65 -24t25 -64t-25 -65t-65 -25h-557q-40 0 -65 25t-25 65z" />
<glyph unicode="F" horiz-adv-x="964" d="M179 92v1141q0 40 25 64t65 24h518q40 0 65.5 -24.5t25.5 -63.5q0 -40 -25.5 -65t-65.5 -25h-423v-361h391q40 0 65 -24t25 -64t-25 -65t-65 -25h-391v-512q0 -39 -27.5 -65.5t-67.5 -26.5t-65 26t-25 66z" />
<glyph unicode="G" horiz-adv-x="1265" d="M97 657q0 142 46.5 267.5t126.5 215t191.5 141.5t237.5 52q80 0 150.5 -15t108.5 -31.5t92 -45.5q47 -26 47 -84q0 -37 -29.5 -64.5t-65.5 -27.5q-19 0 -36 10q-66 39 -125 59.5t-142 20.5q-176 0 -293.5 -144t-117.5 -354q0 -211 111.5 -351t281.5 -140q136 0 262 55 v260q0 26 -7 32.5t-38 6.5h-152q-40 0 -65 23.5t-25 62.5q0 40 25 66t65 26h152q76 0 118 -8t68.5 -34t34.5 -67t8 -114v-307q0 -25 -14 -49.5t-35 -34.5q-197 -96 -397 -96q-165 0 -298.5 86.5t-209.5 239.5t-76 343z" />
<glyph unicode="H" horiz-adv-x="1259" d="M179 92v1139q0 40 26 65t66 25t66.5 -25.5t26.5 -64.5v-449h532v449q0 40 26 65t66 25t66 -25t26 -65v-1139q0 -40 -26 -66t-66 -26t-66 26t-26 66v512h-532v-512q0 -40 -26.5 -66t-66.5 -26t-66 26t-26 66z" />
<glyph unicode="I" horiz-adv-x="542" d="M179 92v1139q0 40 26 65t66 25t66.5 -25.5t26.5 -64.5v-1139q0 -40 -26.5 -66t-66.5 -26t-66 26t-26 66z" />
<glyph unicode="J" horiz-adv-x="559" d="M-151 -206q0 36 27 62.5t63 26.5q11 0 41 -6q24 -4 46 -4q26 0 53.5 12t54.5 38t44.5 75t17.5 113v1118q0 40 26 66t66 26t66 -26t26 -66v-1118q0 -94 -24.5 -169t-62 -120t-86.5 -74.5t-93.5 -41t-87.5 -11.5q-84 0 -128 23q-49 25 -49 76z" />
<glyph unicode="K" horiz-adv-x="1177" d="M179 92v1139q0 39 26.5 64.5t65.5 25.5q40 0 66.5 -25.5t26.5 -64.5v-435l491 494q31 31 70 31t63.5 -26.5t24.5 -63.5q0 -35 -27 -66l-465 -465q300 -228 543 -561q16 -22 16 -49q0 -40 -26 -65t-66 -25q-49 0 -76 39q-126 172 -254.5 301.5t-230.5 206.5l-63 49v-504 q0 -40 -26.5 -66t-66.5 -26t-66 26t-26 66z" />
<glyph unicode="L" horiz-adv-x="954" d="M179 90v1141q0 40 26 65t66 25t66.5 -25.5t26.5 -64.5v-1053h460q41 0 68 -24.5t27 -63.5t-27.5 -64.5t-67.5 -25.5h-553q-40 0 -66 25t-26 65z" />
<glyph unicode="M" horiz-adv-x="1619" d="M140 108l125 1135q3 33 28 55.5t64 22.5h21q68 0 108 -57q84 -118 324 -887q222 718 317 878q40 66 113 66h23q36 0 62 -21.5t30 -56.5l127 -1141q1 -7 1 -14q-1 -34 -21 -58q-24 -30 -68 -30q-86 0 -95 82l-96 917l-41 -116q-113 -322 -248 -768q-10 -36 -39 -59 t-59 -23h-12q-30 0 -59 23t-39 59q-3 10 -40 135t-68 228t-73.5 232t-70.5 199l-37 90l-96 -917q-4 -37 -30 -59.5t-67 -22.5q-42 0 -66 28q-19 22 -19 60q0 9 1 20z" />
<glyph unicode="N" horiz-adv-x="1251" d="M179 92v1137q0 40 26 66t66 26h25q37 0 73 -22.5t62 -51t57 -82.5t47 -87.5t44.5 -97.5t37.5 -83q17 -36 50 -111.5t49 -111.5q101 -228 131 -287q25 -52 41 -76v918q0 40 26 66t66 26t66 -26t26 -66v-1137q0 -40 -26 -66t-66 -26h-21q-63 0 -100 37q-64 64 -196 319 q-51 100 -138 293q-20 45 -62.5 144t-66.5 151q-20 47 -32 66v-918q0 -40 -26.5 -66t-66.5 -26t-66 26t-26 66z" />
<glyph unicode="O" horiz-adv-x="1325" d="M97 657q0 189 74.5 344.5t204.5 243.5t287 88q162 0 291 -87t201.5 -241.5t72.5 -347.5q0 -190 -72.5 -343t-201.5 -239.5t-291 -86.5q-157 0 -287 87.5t-204.5 241t-74.5 340.5zM288 657q0 -207 107.5 -349t267.5 -142q165 0 269.5 139.5t104.5 351.5 q0 215 -104.5 356.5t-269.5 141.5q-160 0 -267.5 -144t-107.5 -354z" />
<glyph unicode="P" horiz-adv-x="999" d="M179 92v1137q0 40 26 66t66 26h293q169 0 284.5 -105.5t115.5 -263.5q0 -85 -23.5 -153.5t-62.5 -112.5t-92 -74t-108 -42.5t-114 -12.5h-200v-465q0 -40 -26.5 -66t-66.5 -26t-66 26t-26 66zM364 735h200q85 0 147 53.5t62 163.5q0 80 -59.5 135.5t-149.5 55.5h-200 v-408z" />
<glyph unicode="Q" horiz-adv-x="1323" d="M97 657q0 189 75 344.5t205.5 243.5t287.5 88q162 0 292.5 -87t204.5 -241.5t74 -347.5q0 -247 -121 -420.5t-317 -228.5q49 -61 202 -61q35 0 82 7t68 7q48 0 75 -25.5t27 -66.5q0 -86 -131 -96q-50 -4 -86 -4q-342 0 -473 229q-202 39 -333.5 223t-131.5 436zM288 657 q0 -207 108.5 -349t268.5 -142q165 0 273 140t108 351q0 214 -108 356t-273 142q-106 0 -192.5 -66t-135.5 -180t-49 -252z" />
<glyph unicode="R" horiz-adv-x="1118" d="M179 92v1137q0 40 26 66t66 26h314q172 0 285.5 -103t113.5 -262q0 -115 -55 -198.5t-159 -126.5q35 -30 65 -71.5t58 -104.5t43.5 -104.5t44.5 -124.5q39 -109 39 -145q0 -32 -24.5 -56.5t-68.5 -24.5q-31 0 -55 18.5t-33 49.5q-32 105 -57 176t-57.5 139.5t-65.5 107.5 t-76 63t-95 24h-124v-486q0 -40 -26.5 -66t-66.5 -26t-66 26t-26 66zM364 756h221q20 0 41 2.5t53 15t56 33t41.5 61t17.5 95.5q0 77 -59 128.5t-150 51.5h-221v-387z" />
<glyph unicode="S" horiz-adv-x="999" d="M97 199q0 37 26.5 61.5t61.5 24.5q33 0 64 -23q117 -96 229 -96q106 0 170 57.5t64 149.5q0 44 -25 82t-66 64.5t-93.5 54.5t-107.5 53t-107.5 60t-93.5 74t-66 97.5t-25 128.5q0 104 56.5 184.5t145 121t189.5 40.5q159 0 314 -110q36 -26 36 -78q0 -37 -26.5 -63.5 t-61.5 -26.5q-34 0 -55 18q-96 82 -207 82q-81 0 -141 -48.5t-60 -119.5q0 -44 25 -81t66 -62t93.5 -52.5t107.5 -51.5t107.5 -59t93.5 -74.5t66 -100t25 -133.5q0 -173 -117.5 -279t-306.5 -106q-105 0 -180 33t-162 98q-39 28 -39 80z" />
<glyph unicode="T" horiz-adv-x="974" d="M15 1233q0 40 25 64t65 24h764q40 0 65 -24t25 -64t-25 -65t-65 -25h-292v-1051q0 -40 -26.5 -66t-66.5 -26t-66 26t-26 66v1051h-287q-40 0 -65 25t-25 65z" />
<glyph unicode="U" horiz-adv-x="1257" d="M179 442v789q0 39 27 64.5t67 25.5q39 0 65 -25.5t26 -64.5v-785q0 -33 6 -67t24 -73.5t46 -69.5t77 -50t113 -20t113 20t76.5 50t45.5 69.5t23.5 73t5.5 67.5v785q0 40 26 65t66 25t66 -25t26 -65v-789q0 -50 -9 -102t-38 -118t-76 -115.5t-131.5 -84t-195.5 -34.5 t-195.5 34.5t-131 84t-76 115.5t-38 118t-8.5 102z" />
<glyph unicode="V" horiz-adv-x="1140" d="M36 1243q0 32 25 55t67 23q74 0 94 -72q5 -21 59.5 -199.5t142 -438t144.5 -390.5q43 95 99.5 253t92 267t95 299t66.5 213q21 68 88 68q36 0 66 -18t30 -64q0 -15 -4 -31q-285 -882 -410 -1142q-19 -38 -56.5 -52t-66.5 -14q-41 0 -74.5 16.5t-46.5 44.5 q-79 148 -213.5 546t-189.5 589q-8 27 -8 47z" />
<glyph unicode="W" horiz-adv-x="1558" d="M36 1243q0 35 26.5 56.5t65.5 21.5q76 0 92 -70q0 -1 15.5 -80t39 -194.5t51 -246t57.5 -261.5t52 -215q79 257 240 950q9 38 38.5 61t69.5 23q43 0 73 -23.5t38 -60.5q8 -38 46.5 -214.5t59.5 -270t55.5 -230.5t61.5 -225q22 84 53 215.5t59 260.5t53 244.5t40 191.5 l16 75q16 70 93 70q39 0 65.5 -21.5t26.5 -56.5q0 -8 -2 -22q-17 -112 -125.5 -591.5t-155.5 -563.5q-38 -66 -123 -66q-16 0 -35.5 3.5t-48 19.5t-41.5 43q-51 106 -211 802q-45 -182 -63 -252.5t-57 -221t-64.5 -229t-42.5 -108.5q-34 -57 -115 -57q-86 0 -121 61 q-49 86 -159 575t-121 585q-2 14 -2 22z" />
<glyph unicode="X" horiz-adv-x="993" d="M36 84q0 27 21 63l343 549q-16 25 -64 102t-68 108.5t-57 88.5t-67 99.5t-60 83.5q-18 23 -18 55q0 37 28.5 62.5t65.5 25.5q50 0 87 -51q41 -57 262 -396l247 403q27 44 81 44q38 0 65 -24.5t27 -61.5q0 -25 -15 -49l-294 -484q217 -332 328 -559q15 -31 15 -53 q0 -39 -27 -64.5t-66 -25.5q-55 0 -90 65q-125 238 -269 461l-303 -474q-34 -52 -82 -52q-43 0 -66.5 24.5t-23.5 59.5z" />
<glyph unicode="Y" horiz-adv-x="985" d="M36 1235q0 37 26.5 61.5t69.5 24.5q61 0 84 -61q23 -62 120 -269t157 -299q66 103 159 303.5t117 264.5q23 61 84 61q43 0 69.5 -24.5t26.5 -61.5q0 -10 -6 -31q-19 -66 -130.5 -298t-188.5 -343q-19 -27 -39 -47v-424q0 -40 -26 -66t-66 -26t-66.5 26t-26.5 66v424 q-11 11 -39 51q-77 111 -188.5 341.5t-130.5 295.5q-6 21 -6 31z" />
<glyph unicode="Z" horiz-adv-x="950" d="M36 90v23q0 35 20 71q53 105 233.5 396.5t356.5 562.5h-518q-40 0 -65 25t-25 65t25 64t65 24h666q40 0 66 -24.5t26 -63.5v-25q0 -47 -27 -86q-67 -92 -264.5 -404t-333.5 -540h561q40 0 66 -24.5t26 -63.5q0 -40 -26 -65t-66 -25h-694q-40 0 -66 25t-26 65z" />
<glyph unicode="[" horiz-adv-x="776" d="M179 -172v1407q0 39 26 62.5t66 23.5h236q40 0 65 -23.5t25 -62.5q0 -40 -25 -66t-65 -26h-141v-1225h141q40 0 65 -25t25 -65t-25 -64t-65 -24h-236q-40 0 -66 24.5t-26 63.5z" />
<glyph unicode="\" horiz-adv-x="849" d="M77 1329q0 40 29 63t69 23q25 0 48 -15.5t32 -41.5l512 -1366q6 -18 6 -29q0 -37 -28 -63.5t-64 -26.5q-30 0 -54.5 15.5t-33.5 41.5l-510 1370q-6 15 -6 29z" />
<glyph unicode="]" horiz-adv-x="778" d="M179 -172q0 40 26 65t66 25h140v1225h-140q-40 0 -66 26t-26 66q0 39 26 62.5t66 23.5h236q39 0 65.5 -23.5t26.5 -62.5v-1407q0 -39 -26 -63.5t-66 -24.5h-236q-39 0 -65.5 24.5t-26.5 63.5z" />
<glyph unicode="^" horiz-adv-x="1054" d="M108 547q0 26 8 45l329 678q12 25 30.5 38t53.5 13q61 0 82 -51l326 -678q10 -20 10 -47q0 -36 -27.5 -62t-66.5 -26q-30 0 -53.5 14.5t-32.5 36.5l-238 508l-245 -508q-9 -20 -33.5 -34.5t-50.5 -14.5q-36 0 -64 25.5t-28 62.5z" />
<glyph unicode="_" horiz-adv-x="1038" d="M56 -131q0 40 26 65t66 25h742q40 0 66 -25t26 -65q0 -39 -26 -63.5t-66 -24.5h-742q-40 0 -66 24.5t-26 63.5z" />
<glyph unicode="`" horiz-adv-x="694" d="M97 1300q0 36 25 62t61 26q14 0 33 -7l324 -133q57 -24 57 -82q0 -36 -25 -61.5t-61 -25.5q-17 0 -33 6l-323 134q-58 24 -58 81z" />
<glyph unicode="a" horiz-adv-x="933" d="M77 303q0 149 114 231.5t323 82.5h103v55q0 46 -39 86.5t-116 40.5q-102 0 -201 -51q-20 -11 -49 -11q-38 0 -61 26t-23 62q0 48 35 72q43 30 128.5 55t170.5 25q87 0 155.5 -29t107 -75t58 -97.5t19.5 -103.5v-490q31 0 53.5 -28.5t22.5 -63.5q0 -42 -26 -66t-65 -24 q-76 0 -122 57q-121 -69 -236 -69q-65 0 -126 18.5t-112.5 55.5t-82.5 99.5t-31 141.5zM267 303q0 -65 49 -101t113 -36q80 0 188 47v230h-108q-242 0 -242 -140z" />
<glyph unicode="b" d="M138 152v1167q0 40 26 65t66 25t66.5 -25.5t26.5 -64.5v-381q81 39 176 39q200 0 320 -134.5t120 -355.5q0 -223 -124 -361t-320 -138q-85 0 -187 28.5t-145 77.5q-25 29 -25 58zM323 199q79 -33 172 -33q63 0 113 28t80 74.5t45.5 102.5t15.5 116q0 142 -68 227t-182 85 q-78 0 -176 -47v-553z" />
<glyph unicode="c" horiz-adv-x="958" d="M77 487q0 136 64 248.5t175 177t244 64.5q143 0 264 -78q18 -10 29.5 -32t11.5 -46q0 -38 -27 -65t-65 -27q-30 0 -51 16q-73 54 -162 54q-125 0 -209 -90.5t-84 -221.5q0 -82 25.5 -152.5t85 -119.5t143.5 -49q102 0 221 65q23 13 48 13q37 0 64.5 -26t27.5 -66 q0 -49 -49 -78q-158 -86 -312 -86q-197 0 -320.5 138t-123.5 361z" />
<glyph unicode="d" horiz-adv-x="1009" d="M75 485q0 221 120 356.5t320 135.5q100 0 176 -39v381q0 40 26 65t66 25t66.5 -25.5t26.5 -64.5v-1137q32 0 54.5 -26.5t22.5 -63.5q0 -40 -26 -66t-66 -26q-25 0 -60 13t-63 44q-121 -69 -217 -69q-197 0 -321.5 137.5t-124.5 359.5zM265 487q0 -60 15.5 -116 t45.5 -102.5t80.5 -74.5t114.5 -28q67 0 170 47v539q-106 47 -176 47q-114 0 -182 -85t-68 -227z" />
<glyph unicode="e" horiz-adv-x="956" d="M77 481q0 224 118 360t318 136q82 0 152.5 -27.5t115.5 -70.5t70 -93.5t25 -99.5q0 -71 -28 -123.5t-77 -86t-126.5 -55t-165 -30.5t-204.5 -12q22 -94 80.5 -153.5t147.5 -59.5q33 0 74.5 10t68 20t60.5 24.5t36 15.5q20 10 48 10q38 0 64 -27t26 -63q0 -49 -47 -78 q-10 -7 -52 -26t-124 -41.5t-154 -22.5q-189 0 -307.5 136.5t-118.5 356.5zM269 549q218 4 316 37.5t98 99.5q0 40 -45.5 76.5t-124.5 36.5q-102 0 -165.5 -66t-78.5 -184z" />
<glyph unicode="f" horiz-adv-x="661" d="M7 876q0 40 25.5 64.5t66.5 24.5h64v65q0 96 20.5 166.5t51.5 109.5t76 62.5t84 30t87 6.5q100 0 167 -35q57 -28 57 -86q0 -36 -24 -59t-64 -23q-26 0 -67.5 12.5t-68.5 12.5q-21 0 -42 -8t-43.5 -28t-36 -61.5t-13.5 -99.5v-65h201q41 0 66.5 -24.5t25.5 -64.5 t-25.5 -65t-66.5 -25h-201v-694q0 -40 -26 -66t-66 -26t-66 26t-26 66v694h-64q-41 0 -66.5 25t-25.5 65z" />
<glyph unicode="g" horiz-adv-x="995" d="M56 485q0 216 122.5 354t322.5 138q93 0 180 -27t131 -53q15 -9 30 -31.5t15 -54.5v-782q0 -208 -126.5 -317t-330.5 -109q-147 0 -247 51q-37 19 -57.5 41t-20.5 55q0 36 25.5 60.5t62.5 24.5q11 0 23 -2.5t17 -4.5t21.5 -9t20.5 -9q72 -29 155 -29q123 0 198 56.5 t75 178.5v27q-86 -55 -180 -55q-195 0 -316 136.5t-121 360.5zM247 485q0 -145 67 -232t179 -87q68 0 180 49v555q-72 29 -172 29q-119 0 -186.5 -87.5t-67.5 -226.5z" />
<glyph unicode="h" d="M138 92v1225q0 40 26 66t66 26t66.5 -26t26.5 -66v-397q92 57 219 57q173 0 254.5 -85t81.5 -265v-535q0 -40 -26.5 -66t-66.5 -26t-66 26t-26 66v506q0 118 -41 159.5t-151 41.5q-90 0 -178 -43v-664q0 -40 -26.5 -66t-66.5 -26t-66 26t-26 66z" />
<glyph unicode="i" horiz-adv-x="460" d="M138 92v780q0 40 26 66.5t66 26.5t66.5 -26.5t26.5 -66.5v-780q0 -40 -26.5 -66t-66.5 -26t-66 26t-26 66zM138 1169v68q0 40 26 66t66 26t66.5 -26t26.5 -66v-68q0 -40 -26.5 -66t-66.5 -26t-66 26t-26 66z" />
<glyph unicode="j" horiz-adv-x="444" d="M-224 -300q0 36 26.5 62.5t62.5 26.5q11 0 41 -6q24 -4 46 -4q26 0 53.5 12t54.5 37.5t44.5 74.5t17.5 113v856q0 40 26 66.5t66 26.5t66 -26.5t26 -66.5v-856q0 -94 -24.5 -168.5t-62 -119.5t-86.5 -75t-93.5 -41t-87.5 -11q-84 0 -128 23q-48 25 -48 76zM122 1169v70 q0 40 26 65t66 25t66 -25t26 -65v-70q0 -40 -26 -66t-66 -26q-39 0 -65.5 27.5t-26.5 64.5z" />
<glyph unicode="k" horiz-adv-x="884" d="M138 92v1225q0 40 26 66t66 26t66.5 -26t26.5 -66v-680l301 301q27 27 67 27q35 0 63.5 -29t28.5 -64q0 -39 -28 -67l-265 -262q182 -127 365 -400q14 -20 14 -53q0 -36 -26.5 -63t-65.5 -27q-49 0 -71 39q-102 146 -203.5 248.5t-167.5 148.5h-12v-344q0 -40 -26.5 -66 t-66.5 -26t-66 26t-26 66z" />
<glyph unicode="l" horiz-adv-x="503" d="M138 362v955q0 40 26 66t66 26t66.5 -26t26.5 -66v-955q0 -105 15.5 -144.5t57.5 -39.5q40 0 66 -24.5t26 -63.5q0 -40 -26 -65t-66 -25q-150 0 -204 76t-54 286z" />
<glyph unicode="m" horiz-adv-x="1525" d="M138 92v782q0 40 23.5 65.5t62.5 25.5q61 0 84 -54q95 66 223 66q167 0 246 -88q70 45 136.5 66.5t150.5 21.5q165 0 244.5 -85.5t79.5 -264.5v-535q0 -39 -27.5 -65.5t-67.5 -26.5t-65 26t-25 66v506q0 118 -39.5 159.5t-142.5 41.5t-178 -43q12 -58 12 -129v-535 q0 -40 -26 -66t-66 -26t-66 26t-26 66v506q0 117 -39.5 159t-134.5 42q-109 0 -174 -43v-664q0 -40 -26.5 -66t-66.5 -26t-66 26t-26 66z" />
<glyph unicode="n" d="M138 92v782q0 40 23.5 65.5t62.5 25.5q56 0 84 -54q107 66 234 66q173 0 254.5 -85t81.5 -265v-535q0 -40 -26.5 -66t-66.5 -26t-66 26t-26 66v506q0 118 -41 159.5t-151 41.5q-83 0 -178 -43v-664q0 -40 -26.5 -66t-66.5 -26t-66 26t-26 66z" />
<glyph unicode="o" horiz-adv-x="1003" d="M77 481q0 222 118 359t308 137q188 0 306 -137t118 -359q0 -228 -114 -360.5t-310 -132.5q-189 0 -307.5 136.5t-118.5 356.5zM267 481q0 -141 64 -228t172 -87q109 0 171 84.5t62 230.5q0 145 -63 231.5t-170 86.5q-108 0 -172 -86.5t-64 -231.5z" />
<glyph unicode="p" d="M138 -346v1220q0 39 27 65t67 26q54 0 76 -54q81 66 191 66q196 0 318 -135.5t122 -354.5q0 -221 -121 -360t-319 -139q-68 0 -176 35v-369q0 -40 -26.5 -66t-66.5 -26t-66 26t-26 66zM323 213q28 -16 76.5 -31.5t99.5 -15.5q117 0 183.5 91.5t66.5 229.5 q0 142 -67.5 227t-182.5 85q-88 0 -176 -47v-539z" />
<glyph unicode="q" d="M77 485q0 221 120 356.5t320 135.5q109 0 191 -66q27 54 83 54q38 0 62.5 -26.5t24.5 -64.5v-1220q0 -40 -26.5 -66t-66.5 -26t-66 26t-26 66v369q-86 -35 -176 -35q-200 0 -320 137t-120 360zM267 485q0 -145 68 -232t182 -87q84 0 176 47v539q-106 47 -176 47 q-114 0 -182 -85t-68 -229z" />
<glyph unicode="r" horiz-adv-x="724" d="M138 92v782q0 40 26 65.5t66 25.5q39 0 63.5 -25.5t24.5 -65.5v-22q30 46 85 85.5t133 39.5q115 0 155 -49q19 -22 19 -51q0 -39 -25 -66t-63 -27q-12 0 -42 7.5t-44 7.5q-25 0 -49 -6t-55 -28t-54 -58t-39 -102.5t-16 -155.5v-357q0 -40 -26.5 -66t-66.5 -26t-66 26 t-26 66z" />
<glyph unicode="s" horiz-adv-x="845" d="M77 156q0 37 26 63t63 26q22 0 65 -23q102 -56 192 -56q156 0 156 94q0 39 -25.5 68t-66.5 48t-90.5 37t-99.5 41.5t-91 54t-66.5 81t-25.5 117.5q0 89 50.5 152.5t124.5 90.5t161 27q65 0 129.5 -15t106.5 -38q50 -26 50 -82q0 -37 -26 -63t-63 -26q-21 0 -51 12 q-86 34 -146 34q-67 0 -106.5 -19.5t-39.5 -72.5q0 -31 25.5 -55.5t66.5 -42t90.5 -36t99.5 -43.5t91 -57.5t66.5 -85.5t25.5 -121q0 -122 -94 -200t-252 -78q-91 0 -173.5 26.5t-132.5 63.5q-40 30 -40 78z" />
<glyph unicode="t" horiz-adv-x="733" d="M7 876q0 40 25.5 64.5t66.5 24.5h64v178q0 40 26 66t66 26t66 -26t26 -66v-178h201q41 0 66.5 -24.5t25.5 -64.5t-25.5 -65t-66.5 -25h-201v-421q0 -61 14 -103t37.5 -61.5t45 -27t45.5 -7.5q49 0 86.5 17t60.5 17q34 0 58 -26t24 -63q0 -52 -52 -83q-64 -40 -186 -40 q-48 0 -87.5 7t-84 31t-75 63.5t-50.5 110t-20 165.5v421h-64q-41 0 -66.5 25t-25.5 65z" />
<glyph unicode="u" d="M138 338v534q0 40 26 66.5t66 26.5t66.5 -26.5t26.5 -66.5v-505q0 -118 41 -159.5t151 -41.5q90 0 178 57v649q0 40 26 66.5t66 26.5t66.5 -26.5t26.5 -66.5v-782q0 -40 -23.5 -65t-62.5 -25q-57 0 -84 53q-105 -65 -234 -65q-173 0 -254.5 85t-81.5 265z" />
<glyph unicode="v" horiz-adv-x="882" d="M15 881q0 36 28 60t67 24q32 0 54 -18.5t32 -47.5q136 -387 225 -606q16 -36 20 -43q7 11 21 43q84 207 225 608q21 64 84 64q39 0 67.5 -25t28.5 -61q0 -22 -8 -43q-5 -14 -61.5 -163t-133.5 -342t-112 -261q-14 -27 -42 -48.5t-69 -21.5q-42 0 -71 17t-39 40 q-35 68 -112.5 265t-133 347t-61.5 167q-9 27 -9 45z" />
<glyph unicode="w" horiz-adv-x="1292" d="M15 872q0 41 25 67t68 26q38 0 61 -19.5t29 -50.5q93 -414 168 -623q39 120 178 613q10 35 36.5 57.5t67.5 22.5t70 -23t35 -57q15 -51 52.5 -188t66 -234t59.5 -184q30 96 71 249t66 253t27 112q6 31 30 51.5t62 20.5q43 0 66.5 -27t23.5 -68q0 -9 -6 -39 q-27 -127 -110 -420.5t-118 -355.5q-34 -55 -112 -55q-72 0 -103 59q-21 39 -75.5 206.5t-104.5 348.5q-144 -490 -180 -555q-31 -59 -102 -59q-80 0 -113 55q-36 62 -120.5 357.5t-110.5 418.5q-7 35 -7 41z" />
<glyph unicode="x" horiz-adv-x="804" d="M15 90q0 31 21 62l253 363q-132 165 -246 294q-27 31 -27 65q0 38 29.5 64.5t65.5 26.5q33 0 68 -35q58 -58 221 -259l191 255q30 39 76 39q37 0 65.5 -27.5t28.5 -65.5q0 -30 -17 -53l-227 -298q180 -239 251 -376q15 -30 15 -55q0 -35 -28 -62.5t-64 -27.5 q-57 0 -87 54q-100 168 -202 312l-221 -327q-27 -39 -73 -39q-38 0 -65.5 27t-27.5 63z" />
<glyph unicode="y" horiz-adv-x="854" d="M-85 -294q0 37 25.5 63t61.5 26q15 0 57 -11q28 -7 62 -7q67 0 120.5 62.5t110.5 218.5q-141 258 -324 786q-8 24 -8 37q0 39 27 61.5t65 22.5q32 0 56 -21t34 -51q124 -380 234 -605l223 612q10 28 33.5 46.5t53.5 18.5q40 0 66.5 -25.5t26.5 -61.5q0 -16 -6 -32 l-295 -818q-85 -236 -182 -332.5t-235 -96.5q-104 0 -155 29t-51 78z" />
<glyph unicode="z" horiz-adv-x="925" d="M77 90q0 70 244 389q119 155 256 307h-406q-40 0 -66 24.5t-26 63.5q0 40 26 65.5t66 25.5h551q39 0 65.5 -24.5t26.5 -66.5q0 -21 -6 -43t-13 -37.5t-23.5 -39.5t-25 -34.5t-30 -37t-27.5 -33.5l-94 -112q-223 -262 -281 -359h443q40 0 66 -24.5t26 -63.5q0 -40 -26 -65 t-66 -25h-590q-40 0 -65 25t-25 65z" />
<glyph unicode="{" horiz-adv-x="770" d="M138 537q0 26 11.5 45.5t25 29t26 27t13.5 39.5v420q0 112 78 173.5t221 61.5q27 0 51.5 -6.5t46 -28.5t21.5 -57q0 -38 -23 -62t-65 -24q-65 0 -105.5 -16.5t-40.5 -48.5v-412q0 -77 -41 -141q41 -68 41 -138v-417q0 -64 138 -64q41 0 67.5 -24t26.5 -60q0 -44 -30 -69 t-73 -25q-59 0 -110 10.5t-99 34.5t-76 71t-28 113v430q0 27 -12 42.5t-26 21t-26 24t-12 50.5z" />
<glyph unicode="|" horiz-adv-x="563" d="M189 -35v1315q0 40 26 66t67 26q40 0 66 -26t26 -66v-1315q0 -40 -26 -66t-66 -26t-66.5 26t-26.5 66z" />
<glyph unicode="}" horiz-adv-x="770" d="M138 1241q0 51 36.5 71.5t82.5 20.5q57 0 108 -12.5t95 -39t70 -73t26 -108.5v-422q0 -27 12 -43.5t26 -22.5t26 -25t12 -50q0 -33 -38 -69t-38 -69v-432q0 -61 -25.5 -106t-70 -71t-99 -38t-118.5 -12q-45 0 -74 25t-29 69q0 36 27 60t67 24q138 0 138 64v417 q0 70 41 138q-41 64 -41 141v412q0 32 -40.5 48.5t-105.5 16.5q-88 0 -88 86z" />
<glyph unicode="~" horiz-adv-x="804" d="M97 891q0 38 49 80.5t142 42.5q37 0 111.5 -21.5t117.5 -21.5q22 0 51 19.5t49 19.5q35 0 63 -25t28 -61q0 -56 -61.5 -91.5t-129.5 -35.5q-39 0 -113 21.5t-116 21.5q-20 0 -47 -19.5t-47 -19.5q-39 0 -68 25t-29 65z" />
<glyph unicode="&#xa1;" horiz-adv-x="542" d="M179 -242v834q0 40 26 66t66 26t66.5 -26t26.5 -66v-834q0 -40 -26.5 -66t-66.5 -26t-66 26t-26 66zM179 836v65q0 40 26 66t66 26t66.5 -26t26.5 -66v-65q0 -40 -26.5 -66.5t-66.5 -26.5t-66 26.5t-26 66.5z" />
<glyph unicode="&#xa2;" horiz-adv-x="1284" d="M241 487q0 175 102 306t262 170v36q0 39 26.5 66t65.5 27q40 0 67.5 -26.5t27.5 -66.5v-24q120 -27 196 -76q18 -10 29.5 -33.5t11.5 -44.5q0 -36 -26.5 -64t-63.5 -28q-22 0 -83.5 30.5t-88.5 35.5q-28 4 -45 4q-124 0 -207.5 -90.5t-83.5 -221.5q0 -82 25.5 -152.5 t85 -119.5t143.5 -49q108 0 219 65q22 13 47 13q37 0 64.5 -26.5t27.5 -65.5q0 -49 -45 -76q-100 -60 -206 -78v-25q0 -39 -28 -66.5t-67 -27.5t-65.5 27.5t-26.5 66.5v23q-168 25 -266 158.5t-98 332.5z" />
<glyph unicode="&#xa3;" horiz-adv-x="1357" d="M247 625q0 40 26 65t66 25h39q-2 56 -2 86q0 255 106.5 379.5t288.5 124.5q34 0 68.5 -4.5t72.5 -15.5t62 -35t24 -58q0 -40 -21.5 -67t-55.5 -27q-25 0 -74 15t-76 15q-102 0 -156.5 -84.5t-54.5 -242.5q0 -30 2 -86h262q40 0 66 -25t26 -65q0 -39 -26 -63.5t-66 -24.5 h-249q8 -94 8 -125q0 -119 -43 -234h485q40 0 66 -24.5t26 -63.5q0 -40 -26 -65t-66 -25h-628q-44 0 -65.5 21t-21.5 53q0 13 4.5 27.5t9 24.5t14 27.5t14.5 27.5q25 49 35.5 100t10.5 131q0 44 -7 125h-52q-40 0 -66 24.5t-26 63.5z" />
<glyph unicode="&#xa4;" horiz-adv-x="1175" d="M179 580q0 123 62 215l-29 30q-14 24 -14 49q0 34 30 63.5t64 29.5q42 0 67 -25l19 -16q98 57 209 57q130 0 215 -57l37 30q19 11 45 11q37 0 65 -27t29 -66q0 -39 -43 -79q61 -103 61 -215q0 -116 -63 -213l12 -13q33 -33 33 -71t-27.5 -66.5t-66.5 -28.5q-36 0 -82 43 q-99 -57 -215 -57q-134 0 -215 57q-43 -41 -80 -41q-36 0 -65 27t-29 66q0 37 30 67l13 12q-62 108 -62 218zM368 580q0 -91 65 -159.5t154 -68.5q90 0 155.5 68.5t65.5 159.5q0 90 -65.5 157.5t-155.5 67.5q-89 0 -154 -67.5t-65 -157.5z" />
<glyph unicode="&#xa5;" horiz-adv-x="1396" d="M241 319q0 39 26.5 65t65.5 26h274v102h-274q-38 0 -65 25.5t-27 64.5t26.5 63.5t65.5 24.5h155q-67 120 -137 276.5t-102 237.5q-6 18 -6 37q0 34 26 57t70 23q28 0 45 -12q21 -15 39 -52q1 -2 28 -64.5t37.5 -85.5t38 -84t46 -99t45 -88.5t49.5 -90.5l32 -53 q116 189 277 565q21 41 39 52.5t57 11.5q40 0 62 -26.5t22 -53.5q0 -23 -6 -37q-142 -332 -244 -514h127q39 0 65.5 -24.5t26.5 -63.5t-27 -64.5t-65 -25.5h-241v-102h241q39 0 65.5 -26t26.5 -65t-26.5 -63.5t-65.5 -24.5h-241v-139q0 -40 -26.5 -66t-66.5 -26t-66 26 t-26 66v139h-274q-39 0 -65.5 24.5t-26.5 63.5z" />
<glyph unicode="&#xa6;" horiz-adv-x="563" d="M189 -35v447q0 40 26.5 66t66.5 26t66 -26t26 -66v-447q0 -40 -26 -66t-66 -26t-66.5 26t-26.5 66zM189 813v467q0 40 26.5 66t66.5 26t66 -26t26 -66v-467q0 -40 -26 -66t-66 -26t-66.5 26t-26.5 66z" />
<glyph unicode="&#xa7;" horiz-adv-x="1292" d="M282 621q0 74 43.5 141t132.5 117q-62 35 -97.5 97.5t-35.5 135.5q0 68 29 122t78 86t108 48t123 16q63 0 125.5 -17t90 -31t44.5 -25q17 -9 30 -33t13 -45q0 -43 -27 -66.5t-68 -23.5q-25 0 -49 12q-2 1 -23 12.5t-36 18t-43.5 13.5t-56.5 7q-58 0 -104 -25.5t-46 -68.5 t43.5 -74.5t183.5 -101.5q36 -18 51.5 -26t50.5 -29t53 -36.5t44 -43t39 -55t23 -65.5t10 -81q0 -47 -16.5 -87.5t-46 -70t-47.5 -43.5t-44 -30q121 -89 121 -242q0 -131 -97 -217t-245 -86q-75 0 -152 22.5t-107 38t-48 27.5q-16 11 -28.5 33.5t-12.5 44.5q0 39 26 66.5 t64 27.5q30 0 51 -14q112 -68 207 -68q67 0 110.5 36t43.5 89q0 28 -13.5 53.5t-31 44t-50 39.5t-53.5 31.5t-59.5 29.5t-51.5 25q-46 23 -72 37.5t-64.5 41.5t-59.5 52t-37 62t-16 78zM470 621q0 -8 4 -16t14 -17t18.5 -15.5t25.5 -16.5t26 -14.5t30 -15.5t27 -14l88 -45 q44 21 81.5 57.5t37.5 75.5q0 58 -38 95.5t-105 68.5l-45 20q-17 -5 -32.5 -11t-41.5 -20t-44 -31t-32 -43.5t-14 -57.5z" />
<glyph unicode="&#xa8;" horiz-adv-x="636" d="M97 1169v70q0 40 26 65t66 25t66.5 -25.5t26.5 -64.5v-70q0 -39 -26.5 -64.5t-66.5 -25.5t-66 25t-26 65zM355 1169v70q0 40 26 65t66 25t66.5 -25.5t26.5 -64.5v-70q0 -39 -26.5 -64.5t-66.5 -25.5t-66 25t-26 65z" />
<glyph unicode="&#xa9;" horiz-adv-x="1695" d="M179 834q0 181 89.5 335t243.5 244t335 90q137 0 261 -53.5t213.5 -143t142.5 -213.5t53 -259q0 -182 -89.5 -336t-243.5 -243t-337 -89q-182 0 -335.5 89t-243 243t-89.5 336zM312 834q0 -109 42.5 -209t114.5 -172.5t171 -116t207 -43.5q145 0 268.5 73t195.5 198 t72 270q0 143 -72 266.5t-195.5 196.5t-268.5 73q-144 0 -267.5 -73t-195.5 -196.5t-72 -266.5zM513 844q0 165 97.5 274t244.5 109q70 0 127.5 -18.5t89.5 -43.5q31 -24 31 -57q0 -25 -21 -44.5t-47 -19.5q-14 0 -35 9q-25 15 -37 21t-43.5 15t-64.5 9q-89 0 -148 -73 t-59 -181q0 -107 55.5 -179.5t139.5 -72.5q80 0 153 45q16 8 35 8q31 0 50.5 -17.5t19.5 -45.5q0 -35 -25 -54q-90 -63 -233 -63t-236.5 107.5t-93.5 271.5z" />
<glyph unicode="&#xaa;" horiz-adv-x="1177" d="M271 811q0 120 82 175.5t244 55.5h70v45q0 32 -24 52t-64 20q-55 0 -108 -22.5t-73 -22.5q-38 0 -65 26.5t-27 63.5q0 19 8 35q20 43 87.5 71.5t177.5 28.5q71 0 124.5 -25.5t80.5 -58.5t43.5 -73.5t20 -62.5t3.5 -32v-337q55 -14 55 -88q0 -42 -27 -65.5t-71 -25.5 q-45 0 -86 35q-96 -45 -164 -45q-114 0 -200.5 65t-86.5 185zM460 811q0 -37 29.5 -56.5t68.5 -19.5q76 0 109 31v119h-70q-137 0 -137 -74z" />
<glyph unicode="&#xab;" horiz-adv-x="923" d="M118 477q0 31 14 53l197 283q28 39 75 39q40 0 66.5 -27t26.5 -65q0 -26 -19 -53l-162 -230l166 -239q17 -28 17 -52q0 -38 -28.5 -65t-68.5 -27q-47 0 -73 39l-199 299q-12 20 -12 45zM425 477q0 31 14 53l197 283q28 39 76 39q39 0 65.5 -26.5t26.5 -65.5 q0 -26 -19 -53l-161 -230l166 -239q16 -27 16 -52q0 -38 -28 -65t-68 -27q-48 0 -74 39l-199 299q-12 20 -12 45z" />
<glyph unicode="&#xac;" horiz-adv-x="1218" d="M144 496q0 42 26 66t67 24h743q41 0 66.5 -24t25.5 -66v-248q0 -40 -26 -66t-66 -26q-39 0 -65.5 26.5t-26.5 65.5v158h-651q-40 0 -66.5 25.5t-26.5 64.5z" />
<glyph unicode="&#xad;" horiz-adv-x="983" d="M179 492q0 40 26 65t66 25h441q40 0 66 -25t26 -65q0 -39 -26 -64t-66 -25h-441q-40 0 -66 25t-26 64z" />
<glyph unicode="&#xae;" horiz-adv-x="1695" d="M179 834q0 181 90 335t244.5 244t335.5 90q137 0 260.5 -53.5t213 -143t142 -213.5t52.5 -259q0 -137 -52.5 -260.5t-142 -213t-213 -142t-260.5 -52.5q-182 0 -336 89t-244 243t-90 336zM314 834q0 -109 42.5 -209t114.5 -172.5t171 -116t207 -43.5q145 0 268.5 73 t195.5 198t72 270q0 143 -72 266.5t-195.5 196.5t-268.5 73q-144 0 -267.5 -73t-195.5 -196.5t-72 -266.5zM622 539v618q0 30 18.5 49t46.5 19h160q101 0 167 -60.5t66 -152.5q0 -44 -12 -79.5t-30.5 -56.5t-33 -32t-28.5 -17q73 -73 133 -270q2 -6 2 -22q0 -28 -17.5 -46 t-45.5 -18q-22 0 -40 13t-24 36q-38 125 -84.5 196.5t-89.5 71.5h-57v-249q0 -30 -18 -49t-48 -19t-47.5 19t-17.5 49zM753 915h94q13 0 26 3t30.5 12t28.5 30t11 52q0 36 -27 60t-69 24h-94v-181z" />
<glyph unicode="&#xaf;" horiz-adv-x="819" d="M97 1169q0 39 26 63.5t66 24.5h441q40 0 66 -24.5t26 -63.5q0 -40 -26 -65t-66 -25h-441q-40 0 -66 25t-26 65z" />
<glyph unicode="&#xb0;" horiz-adv-x="937" d="M138 879q0 169 89.5 273.5t238.5 104.5q148 0 241 -105.5t93 -272.5q0 -177 -89.5 -276t-244.5 -99q-153 0 -240.5 99t-87.5 276zM327 879q0 -90 37.5 -143.5t101.5 -53.5q66 0 105.5 54t39.5 143q0 80 -37.5 140t-107.5 60t-104.5 -60.5t-34.5 -139.5z" />
<glyph unicode="&#xb1;" horiz-adv-x="1218" d="M169 90q0 39 26 63.5t66 24.5h696q40 0 66.5 -24.5t26.5 -63.5t-26.5 -64.5t-66.5 -25.5h-696q-40 0 -66 25t-26 65zM169 668q0 39 26 63.5t66 24.5h256v264q0 40 26 66t66 26t66 -26t26 -66v-264h256q40 0 66.5 -24.5t26.5 -63.5t-26.5 -64.5t-66.5 -25.5h-256v-256 q0 -40 -26 -66.5t-66 -26.5t-66 26.5t-26 66.5v256h-256q-40 0 -66 25t-26 65z" />
<glyph unicode="&#xb2;" horiz-adv-x="806" d="M155 678q0 32 13 65t40 68.5t49.5 60t60.5 62.5q68 66 104 110t36 74q0 45 -25.5 63.5t-56.5 18.5q-52 0 -101 -33q-18 -12 -41 -12q-26 0 -43.5 19.5t-17.5 46.5q0 34 31 55q73 51 172 51q24 0 48 -3.5t56.5 -16.5t57 -34t42 -61.5t17.5 -93.5q0 -36 -13.5 -71 t-45.5 -74t-53.5 -61t-67.5 -66q-71 -68 -99 -105h209q30 0 48 -17t18 -46q0 -30 -18 -47t-48 -17h-309q-24 0 -43.5 17.5t-19.5 46.5z" />
<glyph unicode="&#xb3;" horiz-adv-x="821" d="M159 717q0 28 19 45.5t44 17.5q22 0 51 -20q37 -25 105 -25q42 0 71 25t29 61q0 46 -35 67t-84 21h-26q-30 0 -47 17t-17 47q0 29 17.5 46t46.5 17h26q43 0 75 21t32 61q0 34 -18 53.5t-35.5 24t-36.5 4.5q-46 0 -96 -33q-12 -12 -37 -12t-44.5 18.5t-19.5 47.5 q0 14 9.5 29t19.5 22q11 9 29.5 20t58 23t80.5 12q100 0 164.5 -49t64.5 -156q0 -45 -22.5 -89t-59.5 -58q39 -18 66.5 -64t27.5 -88q0 -94 -69.5 -154.5t-169.5 -60.5q-59 0 -109.5 15.5t-67.5 26.5t-24 18q-18 18 -18 49z" />
<glyph unicode="&#xb4;" horiz-adv-x="694" d="M97 1166q0 58 58 82l323 133q19 7 33 7q36 0 61 -26t25 -62q0 -57 -57 -81l-324 -134q-16 -6 -33 -6q-36 0 -61 25.5t-25 61.5z" />
<glyph unicode="&#xb5;" d="M138 -123v1000q0 40 26 65t66 25t66.5 -25.5t26.5 -64.5v-510q0 -117 39.5 -159t152.5 -42q38 0 82.5 15.5t65 27.5t30.5 20v648q0 40 26 65t66 25t66.5 -25.5t26.5 -64.5v-785q0 -39 -25.5 -65.5t-67.5 -26.5q-46 0 -73 39q-104 -51 -197 -51q-132 0 -192 51v-162 q0 -40 -26.5 -66t-66.5 -26t-66 26t-26 66z" />
<glyph unicode="&#xb6;" horiz-adv-x="1298" d="M138 952q0 158 112.5 263.5t280.5 105.5h537q40 0 66 -25t26 -65t-26 -65t-66 -25h-10v-1215q0 -40 -26 -66t-66 -26t-66.5 26t-26.5 66v1215h-83v-1215q0 -40 -26.5 -66t-66.5 -26t-66 26t-26 66v627h-74q-71 0 -138 22t-125.5 67t-94 125t-35.5 185z" />
<glyph unicode="&#xb7;" horiz-adv-x="497" d="M138 551q0 49 31.5 81t79.5 32q47 0 78.5 -32t31.5 -81q0 -47 -31.5 -78t-78.5 -31t-79 31t-32 78z" />
<glyph unicode="&#xb8;" horiz-adv-x="544" d="M97 -160q0 11 4 31l35 162q6 26 17.5 35.5t31.5 9.5q25 0 33 -13t8 -36q0 -4 -5 -24t-12 -45t-9 -34q39 13 75 13q73 0 122.5 -52t49.5 -135q0 -93 -62.5 -145.5t-150.5 -52.5q-55 0 -89.5 21.5t-34.5 55.5q0 60 61 60q3 0 27.5 -4t46.5 -4q26 0 48.5 20t22.5 49 q0 30 -15 47t-40 17q-38 0 -67 -13.5t-39 -13.5q-58 0 -58 51z" />
<glyph unicode="&#xb9;" horiz-adv-x="593" d="M124 1184q0 33 31 55l104 70q16 12 39 12q26 0 46 -18.5t20 -49.5v-571q0 -30 -19 -49t-49 -19q-29 0 -47.5 18.5t-18.5 49.5v455l-16 -11q-12 -8 -29 -8q-25 0 -43 18t-18 48z" />
<glyph unicode="&#xba;" horiz-adv-x="1224" d="M271 946q0 174 96 283.5t246 109.5q149 0 244.5 -109.5t95.5 -283.5q0 -179 -91.5 -282t-248.5 -103q-150 0 -246 107.5t-96 277.5zM460 946q0 -91 42 -149t111 -58t110.5 56.5t41.5 150.5q0 97 -41.5 156t-110.5 59t-111 -59.5t-42 -155.5z" />
<glyph unicode="&#xbb;" horiz-adv-x="923" d="M118 186q0 25 16 52l166 239l-162 230q-18 26 -18 53q0 39 26.5 65.5t65.5 26.5q48 0 76 -39l196 -283q15 -24 15 -53q0 -23 -13 -45l-198 -299q-26 -39 -74 -39q-40 0 -68 27t-28 65zM425 186q0 25 16 52l166 239l-162 230q-18 26 -18 53q0 39 26.5 65.5t65.5 26.5 q48 0 76 -39l197 -283q14 -22 14 -53q0 -25 -12 -45l-199 -299q-26 -39 -74 -39q-40 0 -68 27t-28 65z" />
<glyph unicode="&#xbc;" horiz-adv-x="1538" d="M124 1184q0 33 31 55l104 70q16 12 39 12q26 0 46 -18.5t20 -49.5v-571q0 -30 -19 -49t-49 -19q-29 0 -47.5 18.5t-18.5 49.5v455l-16 -11q-12 -8 -29 -8q-25 0 -43 18t-18 48zM216 72q0 25 23 61l800 1155q23 33 63 33q30 0 51.5 -21t21.5 -51q0 -25 -23 -61l-801 -1155 q-22 -33 -62 -33q-30 0 -51.5 21t-21.5 51zM912 223q0 9 9 31q31 67 73 136.5t76.5 117t72.5 92.5t53 61t24 25q21 21 51 21q27 0 45 -19.5t18 -42.5q0 -31 -20 -51q-150 -150 -238 -307h133v75q0 31 19.5 49.5t46.5 18.5q28 0 47.5 -18.5t19.5 -49.5v-75h9q32 0 50.5 -16.5 t18.5 -47.5q0 -28 -18.5 -45.5t-50.5 -17.5h-9v-92q0 -30 -20 -49t-47 -19t-46.5 19t-19.5 49v92h-231q-33 0 -49.5 18.5t-16.5 44.5z" />
<glyph unicode="&#xbd;" horiz-adv-x="1603" d="M124 1184q0 33 31 55l104 70q16 12 39 12q26 0 46 -18.5t20 -49.5v-571q0 -30 -19 -49t-49 -19q-29 0 -47.5 18.5t-18.5 49.5v455l-16 -11q-12 -8 -29 -8q-25 0 -43 18t-18 48zM216 72q0 25 23 61l800 1155q23 33 63 33q30 0 51.5 -21t21.5 -51q0 -25 -23 -61l-801 -1155 q-22 -33 -62 -33q-30 0 -51.5 21t-21.5 51zM951 63q0 32 13 65t40.5 68.5t49.5 59.5t61 63q66 64 102.5 109t36.5 76q0 45 -25.5 63.5t-56.5 18.5q-50 0 -100 -33q-18 -12 -41 -12q-26 0 -43.5 19t-17.5 46q0 36 30 56q73 51 172 51q24 0 48 -3.5t57 -16.5t57.5 -34 t42 -61.5t17.5 -93.5q0 -29 -11.5 -60.5t-25.5 -54.5t-43.5 -56t-46.5 -50t-54 -52q-70 -67 -98 -104h209q29 0 47.5 -17.5t18.5 -46.5q0 -30 -18 -46.5t-48 -16.5h-309q-24 0 -44 17t-20 46z" />
<glyph unicode="&#xbe;" horiz-adv-x="1765" d="M159 717q0 28 19 45.5t44 17.5q22 0 51 -20q37 -25 105 -25q42 0 71 25t29 61q0 46 -35 67t-84 21h-26q-30 0 -47 17t-17 47q0 29 17.5 46t46.5 17h26q43 0 75 21t32 61q0 34 -18 53.5t-35.5 24t-36.5 4.5q-46 0 -96 -33q-12 -12 -37 -12t-44.5 18.5t-19.5 47.5 q0 14 9.5 29t19.5 22q11 9 29.5 20t58 23t80.5 12q100 0 164.5 -49t64.5 -156q0 -45 -22.5 -89t-59.5 -58q39 -18 66.5 -64t27.5 -88q0 -94 -69.5 -154.5t-169.5 -60.5q-59 0 -109.5 15.5t-67.5 26.5t-24 18q-18 18 -18 49zM443 72q0 25 23 61l801 1155q23 33 62 33 q30 0 51.5 -21t21.5 -51q0 -25 -23 -61l-800 -1155q-22 -33 -63 -33q-30 0 -51.5 21t-21.5 51zM1140 223q0 11 8 31q31 67 73 136.5t76.5 117t72.5 92.5t53 61t24 25q21 21 51 21q27 0 45.5 -19.5t18.5 -42.5q0 -30 -21 -51q-148 -148 -237 -307h133v75q0 31 19 49.5 t46 18.5q28 0 48 -18.5t20 -49.5v-75h8q33 0 51.5 -17t18.5 -47q0 -28 -19 -45.5t-51 -17.5h-8v-92q0 -30 -20.5 -49t-47.5 -19t-46 19t-19 49v92h-232q-33 0 -49 18.5t-16 44.5z" />
<glyph unicode="&#xbf;" horiz-adv-x="1044" d="M151 61q0 63 19 113.5t49.5 84.5t67.5 62.5t74 55t67.5 55t49.5 69.5t19 91q0 40 26 66t66 26t66 -26t26 -66q0 -67 -19 -122.5t-48.5 -92.5t-66 -68.5t-73 -58.5t-66 -53.5t-48.5 -61t-19 -74.5q0 -96 56 -157.5t143 -61.5q91 0 194 72q27 18 62 18q39 0 64.5 -26.5 t25.5 -65.5q0 -40 -35 -67q-5 -5 -16.5 -14t-41 -26.5t-63.5 -32t-85.5 -25.5t-104.5 -11q-166 0 -277.5 112.5t-111.5 284.5zM497 836v65q0 40 26 66t66 26t66 -26t26 -66v-65q0 -40 -26 -66.5t-66 -26.5t-66 26.5t-26 66.5z" />
<glyph unicode="&#xc0;" horiz-adv-x="1144" d="M36 84q0 15 4 27q38 138 181 561t233 590q18 33 43.5 46t74.5 13q91 0 121 -64q75 -159 221 -578.5t191 -567.5q4 -12 4 -27q0 -38 -25.5 -61t-70.5 -23q-34 0 -51.5 14t-28.5 45q-30 78 -107 320h-512q-16 -50 -49.5 -165.5t-48.5 -154.5q-21 -59 -90 -59q-44 0 -67 23 t-23 61zM261 1710q0 36 25 61.5t61 25.5q17 0 33 -6l323 -133q58 -24 58 -82q0 -36 -25 -61.5t-61 -25.5q-17 0 -33 6l-324 133q-57 24 -57 82zM378 557h391q-106 327 -197 547q-76 -185 -194 -547z" />
<glyph unicode="&#xc1;" horiz-adv-x="1144" d="M36 84q0 15 4 27q38 138 181 561t233 590q18 33 43.5 46t74.5 13q91 0 121 -64q75 -159 221 -578.5t191 -567.5q4 -12 4 -27q0 -38 -25.5 -61t-70.5 -23q-34 0 -51.5 14t-28.5 45q-30 78 -107 320h-512q-16 -50 -49.5 -165.5t-48.5 -154.5q-21 -59 -90 -59q-44 0 -67 23 t-23 61zM378 557h391q-106 327 -197 547q-76 -185 -194 -547zM386 1576q0 58 57 82l324 133q16 6 33 6q36 0 61 -25.5t25 -61.5q0 -58 -58 -82l-323 -133q-16 -6 -33 -6q-36 0 -61 25.5t-25 61.5z" />
<glyph unicode="&#xc2;" horiz-adv-x="1144" d="M36 84q0 15 4 27q38 138 181 561t233 590q18 33 43.5 46t74.5 13q91 0 121 -64q75 -159 221 -578.5t191 -567.5q4 -12 4 -27q0 -38 -25.5 -61t-70.5 -23q-34 0 -51.5 14t-28.5 45q-30 78 -107 320h-512q-16 -50 -49.5 -165.5t-48.5 -154.5q-21 -59 -90 -59q-44 0 -67 23 t-23 61zM243 1575q0 54 47 78l239 129q21 12 45 12q19 0 43 -12l244 -131q21 -11 32 -33.5t11 -44.5q0 -38 -27 -61t-67 -23q-21 0 -45 12l-191 103l-196 -103q-24 -12 -43 -12q-40 0 -66 24.5t-26 61.5zM378 557h391q-106 327 -197 547q-76 -185 -194 -547z" />
<glyph unicode="&#xc3;" horiz-adv-x="1144" d="M36 84q0 15 4 27q38 138 181 561t233 590q18 33 43.5 46t74.5 13q91 0 121 -64q75 -159 221 -578.5t191 -567.5q4 -12 4 -27q0 -38 -25.5 -61t-70.5 -23q-34 0 -51.5 14t-28.5 45q-30 78 -107 320h-512q-16 -50 -49.5 -165.5t-48.5 -154.5q-21 -59 -90 -59q-44 0 -67 23 t-23 61zM273 1575q0 62 59.5 98.5t129.5 36.5q45 0 110 -21.5t117 -21.5q18 0 45 17.5t53 17.5q37 0 66 -25.5t29 -62.5q0 -42 -32 -71.5t-74 -41.5t-87 -12t-110 21.5t-117 21.5q-17 0 -46.5 -16.5t-49.5 -16.5q-38 0 -65.5 20t-27.5 56zM378 557h391q-106 327 -197 547 q-76 -185 -194 -547z" />
<glyph unicode="&#xc4;" horiz-adv-x="1144" d="M36 84q0 15 4 27q38 138 181 561t233 590q18 33 43.5 46t74.5 13q91 0 121 -64q75 -159 221 -578.5t191 -567.5q4 -12 4 -27q0 -38 -25.5 -61t-70.5 -23q-34 0 -51.5 14t-28.5 45q-30 78 -107 320h-512q-16 -50 -49.5 -165.5t-48.5 -154.5q-21 -59 -90 -59q-44 0 -67 23 t-23 61zM351 1581v66q0 40 26 66t66 26t66.5 -26t26.5 -66v-66q0 -40 -26.5 -66t-66.5 -26t-66 26t-26 66zM378 557h391q-106 327 -197 547q-76 -185 -194 -547zM609 1581v66q0 40 26 66t66 26t66.5 -26t26.5 -66v-66q0 -40 -26.5 -66t-66.5 -26t-66 26t-26 66z" />
<glyph unicode="&#xc5;" horiz-adv-x="1144" d="M36 84q0 15 4 27q38 138 181 561t233 590q18 33 43.5 46t74.5 13q91 0 121 -64q75 -159 221 -578.5t191 -567.5q4 -12 4 -27q0 -38 -25.5 -61t-70.5 -23q-34 0 -51.5 14t-28.5 45q-30 78 -107 320h-512q-16 -50 -49.5 -165.5t-48.5 -154.5q-21 -59 -90 -59q-44 0 -67 23 t-23 61zM378 557h391q-106 327 -197 547q-76 -185 -194 -547zM384 1681q0 80 56.5 135.5t138.5 55.5q81 0 134.5 -55.5t53.5 -135.5q0 -83 -53 -137.5t-135 -54.5t-138.5 54.5t-56.5 137.5zM513 1683q0 -28 20 -47.5t48 -19.5q25 0 45 20t20 47q0 25 -20 44.5t-45 19.5 q-27 0 -47.5 -19.5t-20.5 -44.5z" />
<glyph unicode="&#xc6;" horiz-adv-x="1583" d="M36 88q0 28 8 41q26 67 250.5 525.5t318.5 613.5q14 23 45 38t66 15h612q40 0 66 -24.5t26 -63.5q0 -40 -26 -65t-66 -25h-434q41 -241 53 -361h349q40 0 66 -25t26 -65q0 -39 -26 -63.5t-66 -24.5h-328q24 -248 24 -411v-15h373q40 0 66 -24.5t26 -63.5q0 -40 -26 -65 t-66 -25h-465q-41 0 -66.5 25.5t-25.5 66.5q0 221 -26 508q-130 -8 -238 -52.5t-164 -129.5l-178 -369q-12 -22 -35 -35.5t-49 -13.5q-41 0 -65.5 26t-24.5 62zM519 709q128 62 252 69q-2 19 -9 77t-11 85.5t-12.5 75.5t-18.5 92q-33 -61 -201 -399z" />
<glyph unicode="&#xc7;" horiz-adv-x="1218" d="M97 659q0 142 46.5 267.5t126.5 214.5t191.5 140.5t237.5 51.5q139 0 237 -34.5t146 -73.5q39 -31 39 -78q0 -37 -28 -63.5t-62 -26.5q-31 0 -55 18q-108 80 -277 80q-176 0 -293.5 -143t-117.5 -353q0 -211 111.5 -352t281.5 -141q140 0 287 82q28 14 49 14 q37 0 64.5 -29t27.5 -65q0 -52 -39 -74q-204 -106 -389 -106h-9l-18 -62q39 13 76 13q73 0 122.5 -52t49.5 -135q0 -93 -62.5 -145.5t-150.5 -52.5q-55 0 -90 21.5t-35 55.5q0 60 62 60q3 0 27 -4t46 -4q26 0 49 20t23 49q0 30 -15 47t-40 17q-38 0 -67.5 -13.5t-39.5 -13.5 q-30 0 -43.5 12t-13.5 39q0 11 4 31l27 125q-214 38 -350 221.5t-136 441.5z" />
<glyph unicode="&#xc8;" horiz-adv-x="1024" d="M179 90v1143q0 40 25 64t65 24h518q40 0 65.5 -24.5t25.5 -63.5q0 -40 -25.5 -65t-65.5 -25h-423v-361h391q40 0 65 -24t25 -64t-25 -65t-65 -25h-391v-426h462q40 0 65 -24t25 -64t-25 -65t-65 -25h-557q-40 0 -65 25t-25 65zM253 1710q0 36 25 61.5t61 25.5q17 0 33 -6 l323 -133q58 -24 58 -82q0 -36 -25 -61.5t-61 -25.5q-17 0 -33 6l-324 133q-57 24 -57 82z" />
<glyph unicode="&#xc9;" horiz-adv-x="1024" d="M179 90v1143q0 40 25 64t65 24h518q40 0 65.5 -24.5t25.5 -63.5q0 -40 -25.5 -65t-65.5 -25h-423v-361h391q40 0 65 -24t25 -64t-25 -65t-65 -25h-391v-426h462q40 0 65 -24t25 -64t-25 -65t-65 -25h-557q-40 0 -65 25t-25 65zM294 1576q0 58 57 82l324 133q16 6 33 6 q36 0 61 -25.5t25 -61.5q0 -58 -58 -82l-323 -133q-16 -6 -33 -6q-36 0 -61 25.5t-25 61.5z" />
<glyph unicode="&#xca;" horiz-adv-x="1024" d="M179 90v1143q0 40 25 64t65 24h518q40 0 65.5 -24.5t25.5 -63.5q0 -40 -25.5 -65t-65.5 -25h-423v-361h391q40 0 65 -24t25 -64t-25 -65t-65 -25h-391v-426h462q40 0 65 -24t25 -64t-25 -65t-65 -25h-557q-40 0 -65 25t-25 65zM193 1575q0 54 47 78l239 129q21 12 45 12 q19 0 43 -12l244 -131q21 -11 32 -33.5t11 -44.5q0 -38 -27 -61t-67 -23q-21 0 -45 12l-191 103l-196 -103q-24 -12 -43 -12q-40 0 -66 24.5t-26 61.5z" />
<glyph unicode="&#xcb;" horiz-adv-x="1024" d="M179 90v1143q0 40 25 64t65 24h518q40 0 65.5 -24.5t25.5 -63.5q0 -40 -25.5 -65t-65.5 -25h-423v-361h391q40 0 65 -24t25 -64t-25 -65t-65 -25h-391v-426h462q40 0 65 -24t25 -64t-25 -65t-65 -25h-557q-40 0 -65 25t-25 65zM310 1579v70q0 40 26 65t66 25t66.5 -25.5 t26.5 -64.5v-70q0 -39 -26.5 -64.5t-66.5 -25.5t-66 25t-26 65zM568 1579v70q0 40 26 65t66 25t66.5 -25.5t26.5 -64.5v-70q0 -39 -26.5 -64.5t-66.5 -25.5t-66 25t-26 65z" />
<glyph unicode="&#xcc;" horiz-adv-x="542" d="M-42 1710q0 36 25 61.5t61 25.5q17 0 33 -6l323 -133q58 -24 58 -82q0 -36 -25 -61.5t-61 -25.5q-17 0 -33 6l-324 133q-57 24 -57 82zM179 92v1139q0 40 26 65t66 25t66.5 -25.5t26.5 -64.5v-1139q0 -40 -26.5 -66t-66.5 -26t-66 26t-26 66z" />
<glyph unicode="&#xcd;" horiz-adv-x="542" d="M79 1576q0 58 57 82l324 133q16 6 33 6q36 0 61 -25.5t25 -61.5q0 -58 -58 -82l-323 -133q-16 -6 -33 -6q-36 0 -61 25.5t-25 61.5zM179 92v1139q0 40 26 65t66 25t66.5 -25.5t26.5 -64.5v-1139q0 -40 -26.5 -66t-66.5 -26t-66 26t-26 66z" />
<glyph unicode="&#xce;" horiz-adv-x="542" d="M-60 1575q0 54 47 78l239 129q21 12 45 12q19 0 43 -12l244 -131q21 -11 32 -33.5t11 -44.5q0 -38 -27 -61t-67 -23q-21 0 -45 12l-191 103l-196 -103q-24 -12 -43 -12q-40 0 -66 24.5t-26 61.5zM179 92v1139q0 40 26 65t66 25t66.5 -25.5t26.5 -64.5v-1139 q0 -40 -26.5 -66t-66.5 -26t-66 26t-26 66z" />
<glyph unicode="&#xcf;" horiz-adv-x="542" d="M56 1579v70q0 40 26 65t66 25t66.5 -25.5t26.5 -64.5v-70q0 -39 -26.5 -64.5t-66.5 -25.5t-66 25t-26 65zM179 92v1139q0 40 26 65t66 25t66.5 -25.5t26.5 -64.5v-1139q0 -40 -26.5 -66t-66.5 -26t-66 26t-26 66zM314 1579v70q0 39 26.5 64.5t66.5 25.5t66 -25t26 -65 v-70q0 -40 -26 -65t-66 -25t-66.5 25.5t-26.5 64.5z" />
<glyph unicode="&#xd0;" horiz-adv-x="1355" d="M62 686q0 39 26.5 63.5t66.5 24.5h75v455q0 40 25.5 66t65.5 26h346q172 0 307 -85.5t209.5 -237t74.5 -343.5q0 -189 -74 -338t-209 -233t-308 -84h-346q-40 0 -65.5 26t-25.5 66v504h-75q-40 0 -66.5 25.5t-26.5 64.5zM415 178h252q182 0 291.5 132.5t109.5 344.5 q0 214 -110.5 351t-290.5 137h-252v-369h282q40 0 66.5 -24.5t26.5 -63.5t-26.5 -64.5t-66.5 -25.5h-282v-418z" />
<glyph unicode="&#xd1;" horiz-adv-x="1251" d="M179 92v1137q0 40 26 66t66 26h25q37 0 73 -22.5t62 -51t57 -82.5t47 -87.5t44.5 -97.5t37.5 -83q17 -36 50 -111.5t49 -111.5q101 -228 131 -287q25 -52 41 -76v918q0 40 26 66t66 26t66 -26t26 -66v-1137q0 -40 -26 -66t-66 -26h-21q-63 0 -100 37q-64 64 -196 319 q-51 100 -138 293q-20 45 -62.5 144t-66.5 151q-20 47 -32 66v-918q0 -40 -26.5 -66t-66.5 -26t-66 26t-26 66zM337 1575q0 42 30.5 74t72.5 46.5t85 14.5q45 0 110.5 -21.5t117.5 -21.5q18 0 45 17.5t53 17.5q37 0 65.5 -25.5t28.5 -62.5q0 -42 -32 -71.5t-73.5 -41.5 t-86.5 -12t-110.5 21.5t-117.5 21.5q-17 0 -46.5 -16.5t-49.5 -16.5q-38 0 -65 20t-27 56z" />
<glyph unicode="&#xd2;" horiz-adv-x="1325" d="M97 657q0 189 74.5 344.5t204.5 243.5t287 88q162 0 291 -87t201.5 -241.5t72.5 -347.5q0 -190 -72.5 -343t-201.5 -239.5t-291 -86.5q-157 0 -287 87.5t-204.5 241t-74.5 340.5zM288 657q0 -207 107.5 -349t267.5 -142q165 0 269.5 139.5t104.5 351.5 q0 215 -104.5 356.5t-269.5 141.5q-160 0 -267.5 -144t-107.5 -354zM347 1710q0 36 25 61.5t61 25.5q17 0 33 -6l324 -133q57 -24 57 -82q0 -36 -25 -61.5t-61 -25.5q-17 0 -33 6l-324 133q-57 24 -57 82z" />
<glyph unicode="&#xd3;" horiz-adv-x="1325" d="M97 657q0 189 74.5 344.5t204.5 243.5t287 88q162 0 291 -87t201.5 -241.5t72.5 -347.5q0 -190 -72.5 -343t-201.5 -239.5t-291 -86.5q-157 0 -287 87.5t-204.5 241t-74.5 340.5zM288 657q0 -207 107.5 -349t267.5 -142q165 0 269.5 139.5t104.5 351.5 q0 215 -104.5 356.5t-269.5 141.5q-160 0 -267.5 -144t-107.5 -354zM476 1576q0 58 58 82l323 133q16 6 33 6q36 0 61 -25.5t25 -61.5q0 -58 -57 -82l-324 -133q-16 -6 -33 -6q-36 0 -61 25.5t-25 61.5z" />
<glyph unicode="&#xd4;" horiz-adv-x="1325" d="M97 657q0 189 74.5 344.5t204.5 243.5t287 88q162 0 291 -87t201.5 -241.5t72.5 -347.5q0 -190 -72.5 -343t-201.5 -239.5t-291 -86.5q-157 0 -287 87.5t-204.5 241t-74.5 340.5zM288 657q0 -207 107.5 -349t267.5 -142q165 0 269.5 139.5t104.5 351.5 q0 215 -104.5 356.5t-269.5 141.5q-160 0 -267.5 -144t-107.5 -354zM337 1575q0 54 47 78l240 129q21 12 45 12q19 0 43 -12l243 -131q21 -11 32 -33.5t11 -44.5q0 -38 -27 -61t-67 -23q-21 0 -45 12l-190 103l-197 -103q-24 -12 -43 -12q-40 0 -66 24.5t-26 61.5z" />
<glyph unicode="&#xd5;" horiz-adv-x="1325" d="M97 657q0 189 74.5 344.5t204.5 243.5t287 88q162 0 291 -87t201.5 -241.5t72.5 -347.5q0 -190 -72.5 -343t-201.5 -239.5t-291 -86.5q-157 0 -287 87.5t-204.5 241t-74.5 340.5zM288 657q0 -207 107.5 -349t267.5 -142q165 0 269.5 139.5t104.5 351.5 q0 215 -104.5 356.5t-269.5 141.5q-160 0 -267.5 -144t-107.5 -354zM366 1575q0 42 30.5 74t72.5 46.5t85 14.5q45 0 110 -21.5t117 -21.5q18 0 45.5 17.5t53.5 17.5q37 0 65.5 -25.5t28.5 -62.5q0 -42 -32 -71.5t-74 -41.5t-87 -12t-110 21.5t-117 21.5q-17 0 -46.5 -16.5 t-49.5 -16.5q-38 0 -65 20t-27 56z" />
<glyph unicode="&#xd6;" horiz-adv-x="1325" d="M97 657q0 189 74.5 344.5t204.5 243.5t287 88q162 0 291 -87t201.5 -241.5t72.5 -347.5q0 -190 -72.5 -343t-201.5 -239.5t-291 -86.5q-157 0 -287 87.5t-204.5 241t-74.5 340.5zM288 657q0 -207 107.5 -349t267.5 -142q165 0 269.5 139.5t104.5 351.5 q0 215 -104.5 356.5t-269.5 141.5q-160 0 -267.5 -144t-107.5 -354zM447 1579v70q0 39 26.5 64.5t66.5 25.5t66 -25t26 -65v-70q0 -40 -26 -65t-66 -25t-66.5 25.5t-26.5 64.5zM706 1579v70q0 40 26 65t66 25t66 -25t26 -65v-70q0 -40 -26 -65t-66 -25t-66 25t-26 65z" />
<glyph unicode="&#xd7;" horiz-adv-x="1218" d="M189 172q0 37 27 64l260 260l-262 260q-25 28 -25 65q0 35 29.5 63.5t65.5 28.5q42 0 67 -28l256 -256l256 256q32 28 70 28t65 -28t27 -64q0 -37 -23 -63l-264 -262l256 -256q33 -30 33 -72q0 -33 -29.5 -61.5t-64.5 -28.5q-40 0 -68 28l-258 259l-260 -259 q-28 -28 -65 -28q-38 0 -65.5 28t-27.5 66z" />
<glyph unicode="&#xd8;" horiz-adv-x="1335" d="M97 659q0 189 75.5 344t206 242.5t288.5 87.5q136 0 264 -76l14 25q23 41 76 41q39 0 67.5 -23.5t28.5 -64.5q0 -29 -14 -49l-33 -45q168 -177 168 -482q0 -190 -74 -343.5t-204.5 -240.5t-292.5 -87q-141 0 -265 75l-12 -20q-24 -43 -80 -43q-36 0 -65 29t-29 65 q0 27 14 49l29 45q-162 200 -162 471zM288 659q0 -169 78 -303l469 746q-30 22 -77.5 37.5t-90.5 15.5q-106 0 -193 -65.5t-136.5 -179t-49.5 -251.5zM499 219q77 -53 168 -53q165 0 273 140.5t108 352.5q0 181 -80 310z" />
<glyph unicode="&#xd9;" horiz-adv-x="1257" d="M179 442v789q0 39 27 64.5t67 25.5q39 0 65 -25.5t26 -64.5v-785q0 -33 6 -67t24 -73.5t46 -69.5t77 -50t113 -20t113 20t76.5 50t45.5 69.5t23.5 73t5.5 67.5v785q0 40 26 65t66 25t66 -25t26 -65v-789q0 -50 -9 -102t-38 -118t-76 -115.5t-131.5 -84t-195.5 -34.5 t-195.5 34.5t-131 84t-76 115.5t-38 118t-8.5 102zM312 1710q0 36 25 61.5t61 25.5q17 0 33 -6l324 -133q57 -24 57 -82q0 -36 -25 -61.5t-61 -25.5q-17 0 -33 6l-323 133q-58 24 -58 82z" />
<glyph unicode="&#xda;" horiz-adv-x="1257" d="M179 442v789q0 39 27 64.5t67 25.5q39 0 65 -25.5t26 -64.5v-785q0 -33 6 -67t24 -73.5t46 -69.5t77 -50t113 -20t113 20t76.5 50t45.5 69.5t23.5 73t5.5 67.5v785q0 40 26 65t66 25t66 -25t26 -65v-789q0 -50 -9 -102t-38 -118t-76 -115.5t-131.5 -84t-195.5 -34.5 t-195.5 34.5t-131 84t-76 115.5t-38 118t-8.5 102zM435 1576q0 58 58 82l323 133q16 6 33 6q36 0 61 -25.5t25 -61.5q0 -58 -57 -82l-324 -133q-16 -6 -33 -6q-36 0 -61 25.5t-25 61.5z" />
<glyph unicode="&#xdb;" horiz-adv-x="1257" d="M179 442v789q0 39 27 64.5t67 25.5q39 0 65 -25.5t26 -64.5v-785q0 -33 6 -67t24 -73.5t46 -69.5t77 -50t113 -20t113 20t76.5 50t45.5 69.5t23.5 73t5.5 67.5v785q0 40 26 65t66 25t66 -25t26 -65v-789q0 -50 -9 -102t-38 -118t-76 -115.5t-131.5 -84t-195.5 -34.5 t-195.5 34.5t-131 84t-76 115.5t-38 118t-8.5 102zM304 1575q0 54 47 78l240 129q21 12 45 12q19 0 43 -12l244 -131q21 -11 32 -33.5t11 -44.5q0 -38 -27.5 -61t-67.5 -23q-21 0 -45 12l-190 103l-197 -103q-24 -12 -43 -12q-40 0 -66 24.5t-26 61.5z" />
<glyph unicode="&#xdc;" horiz-adv-x="1257" d="M179 442v789q0 39 27 64.5t67 25.5q39 0 65 -25.5t26 -64.5v-785q0 -33 6 -67t24 -73.5t46 -69.5t77 -50t113 -20t113 20t76.5 50t45.5 69.5t23.5 73t5.5 67.5v785q0 40 26 65t66 25t66 -25t26 -65v-789q0 -50 -9 -102t-38 -118t-76 -115.5t-131.5 -84t-195.5 -34.5 t-195.5 34.5t-131 84t-76 115.5t-38 118t-8.5 102zM407 1579v70q0 40 26 65t66 25t66 -25t26 -65v-70q0 -40 -26 -65t-66 -25t-66 25t-26 65zM665 1579v70q0 40 26 65t66 25t66 -25t26 -65v-70q0 -40 -26 -65t-66 -25t-66 25t-26 65z" />
<glyph unicode="&#xdd;" horiz-adv-x="985" d="M36 1235q0 37 26.5 61.5t69.5 24.5q61 0 84 -61q23 -62 120 -269t157 -299q66 103 159 303.5t117 264.5q23 61 84 61q43 0 69.5 -24.5t26.5 -61.5q0 -10 -6 -31q-19 -66 -130.5 -298t-188.5 -343q-19 -27 -39 -47v-424q0 -40 -26 -66t-66 -26t-66.5 26t-26.5 66v424 q-11 11 -39 51q-77 111 -188.5 341.5t-130.5 295.5q-6 21 -6 31zM253 1576q0 58 57 82l324 133q16 6 33 6q36 0 61 -25.5t25 -61.5q0 -58 -58 -82l-323 -133q-16 -6 -33 -6q-36 0 -61 25.5t-25 61.5z" />
<glyph unicode="&#xde;" horiz-adv-x="1048" d="M179 92v1137q0 40 26 66t66 26t66.5 -26t26.5 -66v-144h174q187 0 310.5 -115t123.5 -294q0 -174 -123 -288t-311 -114h-174v-182q0 -40 -26.5 -66t-66.5 -26t-66 26t-26 66zM364 453h174q107 0 175 63t68 160q0 100 -68.5 165.5t-174.5 65.5h-174v-454z" />
<glyph unicode="&#xdf;" d="M138 92v897q0 84 21 152.5t55 112.5t79.5 74t92.5 43t96 13q70 0 134 -20.5t117 -61t84.5 -108t31.5 -154.5q0 -55 -21 -109t-51 -93.5t-60.5 -70.5t-51.5 -50.5t-21 -24.5q0 -4 31.5 -22.5t76 -50.5t89.5 -75t76.5 -109t31.5 -140q0 -152 -104.5 -239t-280.5 -87 q-34 0 -71 6q-95 19 -95 97q0 34 21 63t59 29q12 0 40 -6t46 -6q89 0 142 38.5t53 104.5q0 56 -30.5 100.5t-74.5 74.5t-87.5 59.5t-74 70.5t-30.5 92q0 35 14.5 68t36.5 57.5t47 52t47 51t36.5 55t14.5 64.5q0 83 -52.5 123.5t-123.5 40.5q-64 0 -111.5 -52.5t-47.5 -162.5 v-897q0 -40 -26.5 -66t-66.5 -26t-66 26t-26 66z" />
<glyph unicode="&#xe0;" horiz-adv-x="933" d="M77 303q0 149 114 231.5t323 82.5h103v55q0 46 -39 86.5t-116 40.5q-102 0 -201 -51q-20 -11 -49 -11q-38 0 -61 26t-23 62q0 48 35 72q43 30 128.5 55t170.5 25q87 0 155.5 -29t107 -75t58 -97.5t19.5 -103.5v-490q31 0 53.5 -28.5t22.5 -63.5q0 -42 -26 -66t-65 -24 q-76 0 -122 57q-121 -69 -236 -69q-65 0 -126 18.5t-112.5 55.5t-82.5 99.5t-31 141.5zM241 1341q0 36 25 61.5t61 25.5q16 0 32 -6l324 -133q57 -24 57 -82q0 -36 -25 -61.5t-61 -25.5q-16 0 -32 6l-324 134q-57 24 -57 81zM267 303q0 -65 49 -101t113 -36q80 0 188 47v230 h-108q-242 0 -242 -140z" />
<glyph unicode="&#xe1;" horiz-adv-x="933" d="M77 303q0 149 114 231.5t323 82.5h103v55q0 46 -39 86.5t-116 40.5q-102 0 -201 -51q-20 -11 -49 -11q-38 0 -61 26t-23 62q0 48 35 72q43 30 128.5 55t170.5 25q87 0 155.5 -29t107 -75t58 -97.5t19.5 -103.5v-490q31 0 53.5 -28.5t22.5 -63.5q0 -42 -26 -66t-65 -24 q-76 0 -122 57q-121 -69 -236 -69q-65 0 -126 18.5t-112.5 55.5t-82.5 99.5t-31 141.5zM241 1207q0 58 57 82l324 133q16 6 32 6q36 0 61 -25.5t25 -61.5q0 -57 -57 -81l-324 -134q-16 -6 -32 -6q-36 0 -61 25.5t-25 61.5zM267 303q0 -65 49 -101t113 -36q80 0 188 47v230 h-108q-242 0 -242 -140z" />
<glyph unicode="&#xe2;" horiz-adv-x="933" d="M77 303q0 149 114 231.5t323 82.5h103v55q0 46 -39 86.5t-116 40.5q-102 0 -201 -51q-20 -11 -49 -11q-38 0 -61 26t-23 62q0 48 35 72q43 30 128.5 55t170.5 25q87 0 155.5 -29t107 -75t58 -97.5t19.5 -103.5v-490q31 0 53.5 -28.5t22.5 -63.5q0 -42 -26 -66t-65 -24 q-76 0 -122 57q-121 -69 -236 -69q-65 0 -126 18.5t-112.5 55.5t-82.5 99.5t-31 141.5zM118 1206q0 54 47 78l239 129q21 12 46 12q19 0 43 -12l243 -131q21 -11 32 -33.5t11 -44.5q0 -38 -27 -61t-67 -23q-19 0 -45 13l-190 102l-197 -102q-26 -13 -43 -13q-40 0 -66 24.5 t-26 61.5zM267 303q0 -65 49 -101t113 -36q80 0 188 47v230h-108q-242 0 -242 -140z" />
<glyph unicode="&#xe3;" horiz-adv-x="933" d="M77 303q0 149 114 231.5t323 82.5h103v55q0 46 -39 86.5t-116 40.5q-102 0 -201 -51q-20 -11 -49 -11q-38 0 -61 26t-23 62q0 48 35 72q43 30 128.5 55t170.5 25q87 0 155.5 -29t107 -75t58 -97.5t19.5 -103.5v-490q31 0 53.5 -28.5t22.5 -63.5q0 -42 -26 -66t-65 -24 q-76 0 -122 57q-121 -69 -236 -69q-65 0 -126 18.5t-112.5 55.5t-82.5 99.5t-31 141.5zM157 1206q0 42 30.5 74t72.5 46.5t85 14.5q45 0 110 -21.5t117 -21.5q18 0 45.5 17.5t53.5 17.5q37 0 65.5 -25.5t28.5 -62.5q0 -42 -32 -71.5t-74 -41.5t-87 -12t-110 21.5t-117 21.5 q-17 0 -46.5 -16.5t-49.5 -16.5q-38 0 -65 20t-27 56zM267 303q0 -65 49 -101t113 -36q80 0 188 47v230h-108q-242 0 -242 -140z" />
<glyph unicode="&#xe4;" horiz-adv-x="933" d="M77 303q0 149 114 231.5t323 82.5h103v55q0 46 -39 86.5t-116 40.5q-102 0 -201 -51q-20 -11 -49 -11q-38 0 -61 26t-23 62q0 48 35 72q43 30 128.5 55t170.5 25q87 0 155.5 -29t107 -75t58 -97.5t19.5 -103.5v-490q31 0 53.5 -28.5t22.5 -63.5q0 -42 -26 -66t-65 -24 q-76 0 -122 57q-121 -69 -236 -69q-65 0 -126 18.5t-112.5 55.5t-82.5 99.5t-31 141.5zM257 1169v70q0 40 26 65t66 25t66 -25t26 -65v-70q0 -40 -26 -65t-66 -25t-66 25t-26 65zM267 303q0 -65 49 -101t113 -36q80 0 188 47v230h-108q-242 0 -242 -140zM515 1169v70 q0 40 26 65t66 25t66 -25t26 -65v-70q0 -40 -26 -65t-66 -25t-66 25t-26 65z" />
<glyph unicode="&#xe5;" horiz-adv-x="933" d="M77 303q0 149 114 231.5t323 82.5h103v55q0 46 -39 86.5t-116 40.5q-102 0 -201 -51q-20 -11 -49 -11q-38 0 -61 26t-23 62q0 48 35 72q43 30 128.5 55t170.5 25q87 0 155.5 -29t107 -75t58 -97.5t19.5 -103.5v-490q31 0 53.5 -28.5t22.5 -63.5q0 -42 -26 -66t-65 -24 q-76 0 -122 57q-121 -69 -236 -69q-65 0 -126 18.5t-112.5 55.5t-82.5 99.5t-31 141.5zM267 303q0 -65 49 -101t113 -36q80 0 188 47v230h-108q-242 0 -242 -140zM284 1313q0 80 56 135t138 55q81 0 135 -55t54 -135q0 -83 -53.5 -138t-135.5 -55t-138 55t-56 138zM413 1315 q0 -28 19.5 -48t47.5 -20q25 0 45.5 20.5t20.5 47.5q0 25 -20.5 44t-45.5 19q-27 0 -47 -19t-20 -44z" />
<glyph unicode="&#xe6;" horiz-adv-x="1437" d="M75 297q0 149 105.5 224t307.5 75h125v74q0 60 -44 94.5t-109 34.5q-100 0 -209 -56q-15 -6 -37 -6q-40 0 -65 26.5t-25 61.5q0 45 39 72q44 30 127.5 55t169.5 25q50 0 94 -10.5t72 -25t50.5 -33t33.5 -32t16 -24.5q11 15 30 32t53.5 40t88.5 38t115 15 q82 0 150.5 -27.5t111 -70.5t65.5 -93.5t23 -99.5q0 -44 -9.5 -79.5t-30 -62t-46 -46t-65.5 -33t-80 -22t-97.5 -13t-110.5 -6.5t-126 -2v-170q59 -86 192 -86q87 0 185 61q25 17 59 17q36 0 64 -25.5t28 -62.5q0 -53 -41 -78q-143 -90 -295 -90q-69 0 -125.5 12.5 t-90.5 32.5t-53 36.5t-30 32.5q-109 -114 -260 -114q-52 0 -102 11.5t-96 36.5t-81 60t-56 87t-21 114zM265 297q0 -59 51 -95t115 -36q43 0 93 24t89 62v170h-125q-223 0 -223 -125zM798 596q206 0 290 19.5t84 70.5q0 41 -40.5 77t-118.5 36q-70 0 -127 -40t-88 -110v-53z " />
<glyph unicode="&#xe7;" horiz-adv-x="958" d="M77 487q0 136 64 248.5t175 177t244 64.5q143 0 264 -78q18 -10 29.5 -32t11.5 -46q0 -38 -27 -65t-65 -27q-30 0 -51 16q-73 54 -162 54q-125 0 -209 -90.5t-84 -221.5q0 -82 25.5 -152.5t85 -119.5t143.5 -49q102 0 221 65q23 13 48 13q37 0 64.5 -26t27.5 -66 q0 -49 -49 -78q-148 -82 -301 -86l-17 -62q39 13 76 13q73 0 122.5 -52t49.5 -135q0 -93 -62.5 -145.5t-150.5 -52.5q-55 0 -90 21.5t-35 55.5q0 60 61 60q3 0 27.5 -4t46.5 -4q26 0 49 20t23 49q0 30 -15 47t-40 17q-38 0 -67.5 -13.5t-39.5 -13.5q-30 0 -43.5 12t-13.5 39 q0 11 4 31l26 124q-166 26 -266 159t-100 333z" />
<glyph unicode="&#xe8;" horiz-adv-x="956" d="M77 481q0 224 118 360t318 136q82 0 152.5 -27.5t115.5 -70.5t70 -93.5t25 -99.5q0 -71 -28 -123.5t-77 -86t-126.5 -55t-165 -30.5t-204.5 -12q22 -94 80.5 -153.5t147.5 -59.5q33 0 74.5 10t68 20t60.5 24.5t36 15.5q20 10 48 10q38 0 64 -27t26 -63q0 -49 -47 -78 q-10 -7 -52 -26t-124 -41.5t-154 -22.5q-189 0 -307.5 136.5t-118.5 356.5zM269 549q218 4 316 37.5t98 99.5q0 40 -45.5 76.5t-124.5 36.5q-102 0 -165.5 -66t-78.5 -184zM290 1341q0 36 25 61.5t61 25.5q17 0 33 -6l323 -133q58 -24 58 -82q0 -36 -25 -61.5t-62 -25.5 q-16 0 -32 6l-324 134q-57 24 -57 81z" />
<glyph unicode="&#xe9;" horiz-adv-x="956" d="M77 481q0 224 118 360t318 136q82 0 152.5 -27.5t115.5 -70.5t70 -93.5t25 -99.5q0 -71 -28 -123.5t-77 -86t-126.5 -55t-165 -30.5t-204.5 -12q22 -94 80.5 -153.5t147.5 -59.5q33 0 74.5 10t68 20t60.5 24.5t36 15.5q20 10 48 10q38 0 64 -27t26 -63q0 -49 -47 -78 q-10 -7 -52 -26t-124 -41.5t-154 -22.5q-189 0 -307.5 136.5t-118.5 356.5zM269 549q218 4 316 37.5t98 99.5q0 40 -45.5 76.5t-124.5 36.5q-102 0 -165.5 -66t-78.5 -184zM310 1207q0 58 58 82l323 133q16 6 33 6q36 0 61 -25.5t25 -61.5q0 -57 -57 -81l-324 -134 q-16 -6 -33 -6q-36 0 -61 25.5t-25 61.5z" />
<glyph unicode="&#xea;" horiz-adv-x="956" d="M77 481q0 224 118 360t318 136q82 0 152.5 -27.5t115.5 -70.5t70 -93.5t25 -99.5q0 -71 -28 -123.5t-77 -86t-126.5 -55t-165 -30.5t-204.5 -12q22 -94 80.5 -153.5t147.5 -59.5q33 0 74.5 10t68 20t60.5 24.5t36 15.5q20 10 48 10q38 0 64 -27t26 -63q0 -49 -47 -78 q-10 -7 -52 -26t-124 -41.5t-154 -22.5q-189 0 -307.5 136.5t-118.5 356.5zM198 1206q0 54 47 78l239 129q21 12 45 12q19 0 43 -12l244 -131q21 -11 32 -33.5t11 -44.5q0 -38 -27 -61t-67 -23q-19 0 -45 13l-191 102l-196 -102q-26 -13 -43 -13q-40 0 -66 24.5t-26 61.5z M269 549q218 4 316 37.5t98 99.5q0 40 -45.5 76.5t-124.5 36.5q-102 0 -165.5 -66t-78.5 -184z" />
<glyph unicode="&#xeb;" horiz-adv-x="956" d="M77 481q0 224 118 360t318 136q82 0 152.5 -27.5t115.5 -70.5t70 -93.5t25 -99.5q0 -71 -28 -123.5t-77 -86t-126.5 -55t-165 -30.5t-204.5 -12q22 -94 80.5 -153.5t147.5 -59.5q33 0 74.5 10t68 20t60.5 24.5t36 15.5q20 10 48 10q38 0 64 -27t26 -63q0 -49 -47 -78 q-10 -7 -52 -26t-124 -41.5t-154 -22.5q-189 0 -307.5 136.5t-118.5 356.5zM269 549q218 4 316 37.5t98 99.5q0 40 -45.5 76.5t-124.5 36.5q-102 0 -165.5 -66t-78.5 -184zM306 1169v70q0 40 26 65t66 25t66 -25t26 -65v-70q0 -40 -26 -65t-66 -25t-66 25t-26 65zM564 1169 v70q0 40 26 65t66 25t66.5 -25.5t26.5 -64.5v-70q0 -39 -26.5 -64.5t-66.5 -25.5t-66 25t-26 65z" />
<glyph unicode="&#xec;" horiz-adv-x="460" d="M-19 1300q0 36 25 62t61 26q13 0 32 -7l324 -133q57 -24 57 -82q0 -36 -25 -61.5t-61 -25.5q-17 0 -33 6l-323 134q-57 24 -57 81zM138 90v782q0 40 26 66.5t66 26.5t66.5 -26.5t26.5 -66.5v-782q0 -39 -26.5 -64.5t-66.5 -25.5t-66 25t-26 65z" />
<glyph unicode="&#xed;" horiz-adv-x="460" d="M-28 1207q0 58 58 82l323 133q16 6 33 6q36 0 61 -25.5t25 -61.5q0 -57 -57 -81l-324 -134q-16 -6 -33 -6q-36 0 -61 25.5t-25 61.5zM138 90v782q0 40 26 66.5t66 26.5t66.5 -26.5t26.5 -66.5v-782q0 -39 -26.5 -64.5t-66.5 -25.5t-66 25t-26 65z" />
<glyph unicode="&#xee;" horiz-adv-x="460" d="M-101 1206q0 54 47 78l239 129q21 12 45 12q19 0 43 -12l244 -131q21 -11 32 -33.5t11 -44.5q0 -38 -27 -61t-67 -23q-19 0 -45 13l-191 102l-196 -102q-26 -13 -43 -13q-40 0 -66 24.5t-26 61.5zM138 90v782q0 40 26 66.5t66 26.5t66.5 -26.5t26.5 -66.5v-782 q0 -39 -26.5 -64.5t-66.5 -25.5t-66 25t-26 65z" />
<glyph unicode="&#xef;" horiz-adv-x="460" d="M11 1169v70q0 40 26 65t66 25t66.5 -25.5t26.5 -64.5v-70q0 -39 -26.5 -64.5t-66.5 -25.5t-66 25t-26 65zM138 90v782q0 40 26 66.5t66 26.5t66.5 -26.5t26.5 -66.5v-782q0 -39 -26.5 -64.5t-66.5 -25.5t-66 25t-26 65zM269 1169v70q0 40 26 65t66 25t66.5 -25.5 t26.5 -64.5v-70q0 -39 -26.5 -64.5t-66.5 -25.5t-66 25t-26 65z" />
<glyph unicode="&#xf0;" horiz-adv-x="989" d="M77 520q0 64 14.5 127t47.5 123t80.5 105.5t119.5 73.5t160 28q118 0 215 -82q-7 66 -39 127t-72 102l-162 -77q-22 -11 -43 -11q-38 0 -63 24.5t-25 61.5q0 24 13.5 47t37.5 33l82 33q-23 8 -47 10q-59 5 -188 10q-39 1 -64.5 25t-25.5 55q0 41 22.5 66.5t69.5 25.5 q60 0 102 -2t100.5 -10t112.5 -27.5t101 -50.5l100 52q16 8 41 8q38 0 64 -27t26 -67q0 -55 -45 -80l-43 -23q63 -87 101.5 -211.5t41.5 -271.5v-15q0 -346 -108 -530t-311 -184q-101 0 -178.5 37.5t-121.5 93t-71 131t-36 139.5t-9 131zM267 520q0 -52 5.5 -98.5t21 -95 t39.5 -82.5t65 -56t95 -22q114 0 174 131t63 383q-132 119 -231 119q-62 0 -108.5 -25t-72.5 -66.5t-38.5 -89t-12.5 -98.5z" />
<glyph unicode="&#xf1;" d="M138 92v782q0 40 23.5 65.5t62.5 25.5q56 0 84 -54q107 66 234 66q173 0 254.5 -85t81.5 -265v-535q0 -40 -26.5 -66t-66.5 -26t-66 26t-26 66v506q0 118 -41 159.5t-151 41.5q-83 0 -178 -43v-664q0 -40 -26.5 -66t-66.5 -26t-66 26t-26 66zM200 1206q0 42 30.5 74 t72.5 46.5t85 14.5q45 0 110 -21.5t117 -21.5q18 0 45.5 17.5t53.5 17.5q37 0 65.5 -25.5t28.5 -62.5q0 -42 -32 -71.5t-74 -41.5t-87 -12t-110 21.5t-117 21.5q-17 0 -46.5 -16.5t-49.5 -16.5q-38 0 -65 20t-27 56z" />
<glyph unicode="&#xf2;" horiz-adv-x="1003" d="M77 481q0 222 118 359t308 137q188 0 306 -137t118 -359q0 -228 -114 -360.5t-310 -132.5q-189 0 -307.5 136.5t-118.5 356.5zM267 481q0 -141 64 -228t172 -87q109 0 171 84.5t62 230.5q0 145 -63 231.5t-170 86.5q-108 0 -172 -86.5t-64 -231.5zM273 1341q0 36 25 61.5 t61 25.5q17 0 33 -6l324 -133q57 -24 57 -82q0 -36 -25 -61.5t-61 -25.5q-17 0 -33 6l-323 134q-58 24 -58 81z" />
<glyph unicode="&#xf3;" horiz-adv-x="1003" d="M77 481q0 222 118 359t308 137q188 0 306 -137t118 -359q0 -228 -114 -360.5t-310 -132.5q-189 0 -307.5 136.5t-118.5 356.5zM267 481q0 -141 64 -228t172 -87q109 0 171 84.5t62 230.5q0 145 -63 231.5t-170 86.5q-108 0 -172 -86.5t-64 -231.5zM273 1207q0 58 58 82 l323 133q16 6 33 6q36 0 61 -25.5t25 -61.5q0 -57 -57 -81l-324 -134q-16 -6 -33 -6q-36 0 -61 25.5t-25 61.5z" />
<glyph unicode="&#xf4;" horiz-adv-x="1003" d="M77 481q0 222 118 359t308 137q188 0 306 -137t118 -359q0 -228 -114 -360.5t-310 -132.5q-189 0 -307.5 136.5t-118.5 356.5zM189 1206q0 53 48 78l239 129q21 12 45 12q19 0 43 -12l244 -131q21 -11 32 -33.5t11 -44.5q0 -38 -27 -61t-67 -23q-19 0 -45 13l-191 102 l-196 -102q-26 -13 -43 -13q-40 0 -66.5 24.5t-26.5 61.5zM267 481q0 -141 64 -228t172 -87q109 0 171 84.5t62 230.5q0 145 -63 231.5t-170 86.5q-108 0 -172 -86.5t-64 -231.5z" />
<glyph unicode="&#xf5;" horiz-adv-x="1003" d="M77 481q0 222 118 359t308 137q188 0 306 -137t118 -359q0 -228 -114 -360.5t-310 -132.5q-189 0 -307.5 136.5t-118.5 356.5zM216 1206q0 42 30.5 74t72.5 46.5t85 14.5q45 0 110.5 -21.5t117.5 -21.5q18 0 45 17.5t53 17.5q37 0 65.5 -25.5t28.5 -62.5q0 -42 -32 -71.5 t-73.5 -41.5t-86.5 -12t-110.5 21.5t-117.5 21.5q-17 0 -46.5 -16.5t-49.5 -16.5q-38 0 -65 20t-27 56zM267 481q0 -141 64 -228t172 -87q109 0 171 84.5t62 230.5q0 145 -63 231.5t-170 86.5q-108 0 -172 -86.5t-64 -231.5z" />
<glyph unicode="&#xf6;" horiz-adv-x="1003" d="M77 481q0 222 118 359t308 137q188 0 306 -137t118 -359q0 -228 -114 -360.5t-310 -132.5q-189 0 -307.5 136.5t-118.5 356.5zM267 481q0 -141 64 -228t172 -87q109 0 171 84.5t62 230.5q0 145 -63 231.5t-170 86.5q-108 0 -172 -86.5t-64 -231.5zM290 1169v70 q0 40 26 65t66 25t66 -25t26 -65v-70q0 -40 -26 -65t-66 -25t-66 25t-26 65zM548 1169v70q0 40 26 65t66 25t66 -25t26 -65v-70q0 -40 -26 -65t-66 -25t-66 25t-26 65z" />
<glyph unicode="&#xf7;" horiz-adv-x="1218" d="M144 492q0 39 26.5 64.5t66.5 25.5h745q40 0 66 -25t26 -65q0 -39 -26 -64t-66 -25h-745q-40 0 -66.5 25t-26.5 64zM513 94v68q0 40 26 66t66 26t66 -26t26 -66v-68q0 -40 -26 -65t-66 -25t-66 25t-26 65zM513 829v66q0 40 26 66t66 26t66 -26t26 -66v-66q0 -40 -27 -66 t-67 -26t-65 26t-25 66z" />
<glyph unicode="&#xf8;" horiz-adv-x="1013" d="M77 481q0 222 120 359t310 137q106 0 184 -41q35 27 70 27q27 0 49 -15q39 -23 39 -76q0 -29 -12 -53l-4 -6q104 -142 104 -332q0 -227 -116.5 -360t-313.5 -133q-82 0 -176 41q-29 -29 -62 -29q-26 0 -47 12q-45 27 -45 80q0 11 4 23l8 20q-112 142 -112 346zM267 481 q0 -98 31 -168l295 465q-44 21 -86 21q-109 0 -174.5 -86.5t-65.5 -231.5zM431 184q37 -18 76 -18q79 0 135 48t80 117.5t24 149.5q0 84 -24 154z" />
<glyph unicode="&#xf9;" d="M138 338v534q0 40 26 66.5t66 26.5t66.5 -26.5t26.5 -66.5v-505q0 -118 41 -159.5t151 -41.5q90 0 178 57v649q0 40 26 66.5t66 26.5t66.5 -26.5t26.5 -66.5v-782q0 -40 -23.5 -65t-62.5 -25q-57 0 -84 53q-105 -65 -234 -65q-173 0 -254.5 85t-81.5 265zM267 1341 q0 36 25 61.5t61 25.5q17 0 33 -6l324 -133q57 -24 57 -82q0 -36 -25 -61.5t-61 -25.5q-17 0 -33 6l-323 134q-58 24 -58 81z" />
<glyph unicode="&#xfa;" d="M138 338v534q0 40 26 66.5t66 26.5t66.5 -26.5t26.5 -66.5v-505q0 -118 41 -159.5t151 -41.5q90 0 178 57v649q0 40 26 66.5t66 26.5t66.5 -26.5t26.5 -66.5v-782q0 -40 -23.5 -65t-62.5 -25q-57 0 -84 53q-105 -65 -234 -65q-173 0 -254.5 85t-81.5 265zM267 1207 q0 58 58 82l323 133q16 6 33 6q36 0 61 -25.5t25 -61.5q0 -57 -57 -81l-324 -134q-16 -6 -33 -6q-36 0 -61 25.5t-25 61.5z" />
<glyph unicode="&#xfb;" d="M138 338v534q0 40 26 66.5t66 26.5t66.5 -26.5t26.5 -66.5v-505q0 -118 41 -159.5t151 -41.5q90 0 178 57v649q0 40 26 66.5t66 26.5t66.5 -26.5t26.5 -66.5v-782q0 -40 -23.5 -65t-62.5 -25q-57 0 -84 53q-105 -65 -234 -65q-173 0 -254.5 85t-81.5 265zM179 1206 q0 54 47 78l240 129q21 12 45 12q19 0 43 -12l244 -131q21 -11 32 -33.5t11 -44.5q0 -38 -27.5 -61t-67.5 -23q-19 0 -45 13l-190 102l-197 -102q-26 -13 -43 -13q-40 0 -66 24.5t-26 61.5z" />
<glyph unicode="&#xfc;" d="M138 338v534q0 40 26 66.5t66 26.5t66.5 -26.5t26.5 -66.5v-505q0 -118 41 -159.5t151 -41.5q90 0 178 57v649q0 40 26 66.5t66 26.5t66.5 -26.5t26.5 -66.5v-782q0 -40 -23.5 -65t-62.5 -25q-57 0 -84 53q-105 -65 -234 -65q-173 0 -254.5 85t-81.5 265zM304 1169v70 q0 40 26 65t66 25t66 -25t26 -65v-70q0 -40 -26 -65t-66 -25t-66 25t-26 65zM562 1169v70q0 40 26 65t66 25t66 -25t26 -65v-70q0 -40 -26 -65t-66 -25t-66 25t-26 65z" />
<glyph unicode="&#xfd;" horiz-adv-x="854" d="M-85 -294q0 37 25.5 63t61.5 26q15 0 57 -11q28 -7 62 -7q67 0 120.5 62.5t110.5 218.5q-141 258 -324 786q-8 24 -8 37q0 39 27 61.5t65 22.5q32 0 56 -21t34 -51q124 -380 234 -605l223 612q10 28 33.5 46.5t53.5 18.5q40 0 66.5 -25.5t26.5 -61.5q0 -16 -6 -32 l-295 -818q-85 -236 -182 -332.5t-235 -96.5q-104 0 -155 29t-51 78zM187 1166q0 58 58 82l323 133q19 7 33 7q36 0 61 -26t25 -62q0 -57 -57 -81l-324 -134q-16 -6 -33 -6q-36 0 -61 25.5t-25 61.5z" />
<glyph unicode="&#xfe;" horiz-adv-x="1019" d="M138 -274v1562q0 40 26 65t66 25t66.5 -25.5t26.5 -64.5v-338q83 27 174 27q198 0 322 -134.5t124 -353.5q0 -211 -141.5 -356t-343.5 -145q-74 0 -135 24v-286q0 -40 -26.5 -66.5t-66.5 -26.5t-66 26.5t-26 66.5zM323 211q76 -45 135 -45q124 0 209.5 95t85.5 228 q0 141 -69.5 225.5t-186.5 84.5q-98 0 -174 -39v-549z" />
<glyph unicode="&#xff;" horiz-adv-x="854" d="M-85 -294q0 37 25.5 63t61.5 26q15 0 57 -11q28 -7 62 -7q67 0 120.5 62.5t110.5 218.5q-141 258 -324 786q-8 24 -8 37q0 39 27 61.5t65 22.5q32 0 56 -21t34 -51q124 -380 234 -605l223 612q10 28 33.5 46.5t53.5 18.5q40 0 66.5 -25.5t26.5 -61.5q0 -16 -6 -32 l-295 -818q-85 -236 -182 -332.5t-235 -96.5q-104 0 -155 29t-51 78zM216 1190v70q0 40 26 65t66 25t66 -25t26 -65v-70q0 -40 -26 -65t-66 -25t-66 25t-26 65zM474 1190v70q0 40 26 65t66 25t66 -25t26 -65v-70q0 -40 -26 -65t-66 -25t-66 25t-26 65z" />
<glyph unicode="&#x152;" horiz-adv-x="1673" d="M97 660q0 292 162.5 476.5t426.5 184.5h742q40 0 66.5 -24.5t26.5 -63.5t-26.5 -64.5t-66.5 -25.5h-428v-361h394q40 0 66 -26t26 -66q0 -39 -26 -62.5t-66 -23.5h-394v-426h463q40 0 66 -24.5t26 -63.5q0 -40 -26 -65t-66 -25h-777q-175 0 -309.5 84t-207 234t-72.5 342 zM288 660q0 -215 107.5 -348.5t290.5 -133.5h132v965h-132q-183 0 -290.5 -133.5t-107.5 -349.5z" />
<glyph unicode="&#x153;" horiz-adv-x="1619" d="M77 481q0 221 119.5 358.5t308.5 137.5q120 0 206.5 -50t127.5 -132q48 80 136.5 131t205.5 51q59 0 121.5 -21t115.5 -58t87 -94.5t34 -123.5q0 -69 -28.5 -120t-77.5 -84t-127 -54t-165.5 -30.5t-203.5 -12.5q16 -94 76.5 -153.5t154.5 -59.5q75 0 138.5 20t101 40 t47.5 20q38 0 63 -26.5t25 -65.5q0 -21 -13 -44t-32 -32q-48 -27 -141.5 -58.5t-188.5 -31.5q-103 0 -188.5 43.5t-138.5 128.5q-48 -80 -136 -126t-200 -46q-188 0 -308 137t-120 356zM267 481q0 -140 65.5 -227.5t172.5 -87.5q113 0 177 84.5t64 230.5q0 144 -66 231 t-175 87q-108 0 -173 -87t-65 -231zM933 553q45 0 115 4q156 9 228.5 39t72.5 84q0 40 -45.5 79.5t-122.5 39.5q-97 0 -162 -66t-86 -180z" />
<glyph unicode="&#x178;" horiz-adv-x="985" d="M36 1235q0 37 26.5 61.5t69.5 24.5q61 0 84 -61q23 -62 120 -269t157 -299q66 103 159 303.5t117 264.5q23 61 84 61q43 0 69.5 -24.5t26.5 -61.5q0 -10 -6 -31q-19 -66 -130.5 -298t-188.5 -343q-19 -27 -39 -47v-424q0 -40 -26 -66t-66 -26t-66.5 26t-26.5 66v424 q-11 11 -39 51q-77 111 -188.5 341.5t-130.5 295.5q-6 21 -6 31zM290 1579v70q0 40 26 65t66 25t66 -25t26 -65v-70q0 -40 -26 -65t-66 -25t-66 25t-26 65zM548 1579v70q0 40 26 65t66 25t66 -25t26 -65v-70q0 -40 -26 -65t-66 -25t-66 25t-26 65z" />
<glyph unicode="&#x2c6;" horiz-adv-x="856" d="M97 1165q0 54 47 78l240 129q21 12 45 12q19 0 43 -12l244 -131q21 -11 32 -33.5t11 -44.5q0 -38 -27 -61t-67 -23q-19 0 -45 13l-191 102l-197 -102q-26 -13 -43 -13q-40 0 -66 24.5t-26 61.5z" />
<glyph unicode="&#x2dc;" horiz-adv-x="802" d="M97 1165q0 62 59.5 98.5t129.5 36.5q45 0 110 -21.5t117 -21.5q18 0 45 17.5t53 17.5q37 0 66 -25.5t29 -62.5q0 -42 -32 -71.5t-74 -41.5t-87 -12t-110 21.5t-117 21.5q-17 0 -47 -16t-50 -16q-38 0 -65 19.5t-27 55.5z" />
<glyph unicode="&#x2000;" horiz-adv-x="936" />
<glyph unicode="&#x2001;" horiz-adv-x="1872" />
<glyph unicode="&#x2002;" horiz-adv-x="936" />
<glyph unicode="&#x2003;" horiz-adv-x="1872" />
<glyph unicode="&#x2004;" horiz-adv-x="624" />
<glyph unicode="&#x2005;" horiz-adv-x="468" />
<glyph unicode="&#x2006;" horiz-adv-x="312" />
<glyph unicode="&#x2007;" horiz-adv-x="312" />
<glyph unicode="&#x2008;" horiz-adv-x="234" />
<glyph unicode="&#x2009;" horiz-adv-x="374" />
<glyph unicode="&#x200a;" horiz-adv-x="104" />
<glyph unicode="&#x2010;" horiz-adv-x="983" d="M179 492q0 40 26 65t66 25h441q40 0 66 -25t26 -65q0 -39 -26 -64t-66 -25h-441q-40 0 -66 25t-26 64z" />
<glyph unicode="&#x2011;" horiz-adv-x="983" d="M179 492q0 40 26 65t66 25h441q40 0 66 -25t26 -65q0 -39 -26 -64t-66 -25h-441q-40 0 -66 25t-26 64z" />
<glyph unicode="&#x2012;" horiz-adv-x="983" d="M179 492q0 40 26 65t66 25h441q40 0 66 -25t26 -65q0 -39 -26 -64t-66 -25h-441q-40 0 -66 25t-26 64z" />
<glyph unicode="&#x2013;" horiz-adv-x="1013" d="M138 494q0 39 26 63.5t66 24.5h553q40 0 66.5 -24.5t26.5 -63.5t-26 -62.5t-67 -23.5h-553q-40 0 -66 23.5t-26 62.5z" />
<glyph unicode="&#x2014;" horiz-adv-x="1230" d="M138 489q0 40 26 66.5t66 26.5h770q40 0 66.5 -26.5t26.5 -66.5q0 -39 -26.5 -63.5t-66.5 -24.5h-770q-40 0 -66 24.5t-26 63.5z" />
<glyph unicode="&#x2018;" horiz-adv-x="495" d="M118 969v14q0 16 1.5 38t6 64.5t15 80.5t27 74.5t44 58.5t63.5 22t64.5 -27.5t28.5 -66.5q0 -27 -27 -66q-41 -55 -41 -190q0 -40 -25 -65t-65 -25q-39 0 -65 24t-27 64z" />
<glyph unicode="&#x2019;" horiz-adv-x="495" d="M118 975q0 39 26 65q52 52 52 191q0 40 25 65t65 25q39 0 65 -24t27 -64v-14q0 -17 -2 -46t-12 -83t-26.5 -98t-50 -77.5t-77.5 -33.5q-36 0 -64 27.5t-28 66.5z" />
<glyph unicode="&#x201a;" horiz-adv-x="497" d="M118 -135q0 37 26 63q50 50 50 193q0 39 27 64.5t67 25.5t66 -24.5t26 -63.5v-14q0 -16 -2.5 -46.5t-13 -84.5t-27 -98t-50 -77.5t-77.5 -33.5q-37 0 -64.5 28.5t-27.5 67.5z" />
<glyph unicode="&#x201c;" horiz-adv-x="772" d="M118 969v14q0 16 1.5 38t6 64.5t15 80.5t27 74.5t44 58.5t63.5 22t64.5 -27.5t28.5 -66.5q0 -27 -27 -66q-41 -55 -41 -190q0 -40 -25 -65t-65 -25q-39 0 -65 24t-27 64zM394 969v14q0 17 2 46t12 83t26.5 98t50 77.5t77.5 33.5q36 0 64 -27.5t28 -66.5q0 -40 -26 -66 q-51 -51 -51 -190q0 -40 -25.5 -65t-65.5 -25q-39 0 -65 24t-27 64z" />
<glyph unicode="&#x201d;" horiz-adv-x="772" d="M118 975q0 39 26 65q52 52 52 191q0 40 25 65t65 25q39 0 65 -24t27 -64v-14q0 -17 -2 -46t-12 -83t-26.5 -98t-50 -77.5t-77.5 -33.5q-36 0 -64 27.5t-28 66.5zM404 975q0 26 27 65q41 55 41 191q0 40 25 65t65 25q39 0 65 -24t27 -64v-14q0 -16 -1.5 -38t-6 -64.5 t-15 -80.5t-27 -74.5t-44 -58.5t-63.5 -22t-64.5 27.5t-28.5 66.5z" />
<glyph unicode="&#x201e;" horiz-adv-x="772" d="M118 -135q0 39 26 65q52 52 52 191q0 40 25 65t65 25t66 -24.5t26 -63.5v-14q0 -17 -2 -46t-12 -83t-26.5 -98t-50 -77.5t-77.5 -33.5q-36 0 -64 27.5t-28 66.5zM404 -135q0 26 27 65q41 55 41 191q0 40 25 65t65 25t66 -24.5t26 -63.5v-14q0 -16 -1.5 -38t-6 -64.5 t-15 -80.5t-27 -74.5t-44 -58.5t-63.5 -22t-64.5 27.5t-28.5 66.5z" />
<glyph unicode="&#x2022;" horiz-adv-x="561" d="M138 541q0 60 42 101.5t102 41.5t100.5 -41.5t40.5 -101.5t-40.5 -101t-100.5 -41t-102 41t-42 101z" />
<glyph unicode="&#x2026;" horiz-adv-x="890" d="M138 80v65q0 40 26 66.5t66 26.5q39 0 63.5 -26.5t24.5 -66.5v-65q0 -40 -24.5 -66t-63.5 -26q-40 0 -66 26t-26 66zM353 80v65q0 40 27 66.5t67 26.5t65.5 -26.5t25.5 -66.5v-65q0 -40 -25.5 -66t-65.5 -26t-67 26t-27 66zM568 80v65q0 40 26 66.5t66 26.5t65.5 -26.5 t25.5 -66.5v-65q0 -40 -25.5 -66t-65.5 -26t-66 26t-26 66z" />
<glyph unicode="&#x202f;" horiz-adv-x="374" />
<glyph unicode="&#x2039;" horiz-adv-x="614" d="M118 479q0 29 14 51l197 283q25 39 75 39q40 0 66.5 -27t26.5 -65q0 -21 -19 -53l-162 -230l166 -239q15 -25 15 -52q0 -38 -27.5 -65t-67.5 -27q-47 0 -73 39l-199 299q-12 20 -12 47z" />
<glyph unicode="&#x203a;" horiz-adv-x="614" d="M118 186q0 29 14 52l166 239l-162 230q-18 30 -18 53q0 37 26.5 64.5t65.5 27.5q51 0 76 -39l196 -283q15 -24 15 -51q0 -25 -13 -47l-198 -299q-26 -39 -74 -39q-38 0 -66 27t-28 65z" />
<glyph unicode="&#x205f;" horiz-adv-x="468" />
<glyph unicode="&#x20ac;" horiz-adv-x="1171" d="M118 504q0 77 94 84q0 2 -0.5 8.5t-1 19.5t-0.5 29t0.5 29t1 19.5t0.5 8.5q-41 0 -67.5 22t-26.5 64q0 39 26 64t66 25h24q49 195 183.5 325.5t308.5 130.5q146 0 254 -71q39 -23 39 -78q0 -39 -29 -65.5t-65 -26.5q-29 0 -49 14q-69 51 -150 51q-110 0 -190.5 -78.5 t-116.5 -201.5h391q40 0 66 -23.5t26 -62.5t-26 -64t-66 -25h-414q0 -2 -0.5 -8.5t-1 -19.5t-0.5 -29t0.5 -29t1 -19.5t0.5 -8.5h414q41 0 66.5 -22.5t25.5 -61.5q0 -40 -26 -65t-66 -25h-385q36 -110 110 -180t173 -70q37 0 66.5 7t45 15.5t43 26t45.5 27.5q25 14 54 14 q43 0 67.5 -27t24.5 -67q0 -48 -33 -68q-72 -51 -144 -77.5t-169 -26.5q-176 0 -301.5 117.5t-172.5 308.5h-24q-40 0 -66 25t-26 65z" />
<glyph unicode="&#x2122;" horiz-adv-x="1513" d="M118 1442q0 30 19 47.5t48 17.5h408q29 0 48 -17.5t19 -47.5t-19 -48t-48 -18h-139v-545q0 -29 -19.5 -48t-48.5 -19t-48.5 19t-19.5 48v545h-133q-29 0 -48 18t-19 48zM640 834l72 614q3 25 23 42t42 17h39q48 0 62 -49l139 -481l145 481q6 22 23.5 35.5t40.5 13.5h37 q26 0 44 -18t21 -43l68 -612q0 -30 -18 -50t-46 -20q-27 0 -47.5 15.5t-23.5 43.5l-41 420q-12 -39 -54.5 -186.5t-72.5 -245.5q-16 -47 -62 -47h-29q-47 0 -63 47l-123 436l-41 -424q-3 -28 -23 -43.5t-46 -15.5q-29 0 -47.5 18t-18.5 52z" />
<glyph unicode="&#x25fc;" horiz-adv-x="962" d="M0 0v963h963v-963h-963z" />
<glyph unicode="&#xfb01;" horiz-adv-x="1138" d="M7 872q0 40 26 66.5t66 26.5h64v51q0 93 30 165t75.5 113t106.5 67.5t114 35t108 8.5q97 0 199 -24.5t166 -69.5l15 -12q22 -26 23 -58v-70q0 -40 -26 -66t-66 -26t-66 26t-26 66v21q-33 13 -102.5 24t-116.5 11q-252 0 -252 -211v-51h207q40 0 66 -24.5t26 -63.5 q0 -40 -26 -65.5t-66 -25.5h-205v-694q0 -40 -26 -66t-66 -26t-66 26t-26 66v694h-64q-40 0 -66 23.5t-26 62.5zM816 92v780q0 40 26 66.5t66 26.5t66 -26.5t26 -66.5v-780q0 -40 -26 -66t-66 -26t-66 26t-26 66z" />
<glyph unicode="&#xfb02;" horiz-adv-x="1181" d="M7 877q0 39 26 63.5t66 24.5h64v51q0 83 22.5 148.5t62 106.5t84 69t97 41.5t91.5 18.5t77 5q92 0 196 -25.5t166 -68.5q6 -4 13.5 -11.5t17.5 -25.5t10 -37v-875q0 -105 15 -142.5t57 -37.5q40 0 66 -25t26 -65t-26 -66t-66 -26q-149 0 -202.5 75.5t-53.5 286.5v830 q-33 13 -102 24t-115 11q-252 0 -252 -211v-51h205q40 0 66 -24.5t26 -63.5q0 -40 -26 -65.5t-66 -25.5h-205v-694q0 -40 -26 -66t-66 -26t-66 26t-26 66v694h-64q-40 0 -66 25.5t-26 65.5z" />
<glyph unicode="&#xfb03;" horiz-adv-x="1830" d="M7 876q0 40 25.5 64.5t66.5 24.5h64v65q0 96 20.5 166.5t51.5 109.5t76 62.5t84 30t87 6.5q100 0 167 -35q57 -28 57 -86q0 -36 -24 -59t-64 -23q-26 0 -67.5 12.5t-68.5 12.5q-21 0 -42 -8t-43.5 -28t-36 -61.5t-13.5 -99.5v-65h508v51q0 93 30 165t75.5 113t106.5 67.5 t114 35t108 8.5q97 0 199 -24.5t166 -69.5l15 -12q23 -26 24 -58v-70q0 -40 -26 -66t-66 -26t-66.5 26t-26.5 66v21q-33 13 -102.5 24t-116.5 11q-252 0 -252 -211v-51h207q40 0 66 -24.5t26 -63.5q0 -40 -26 -65.5t-66 -25.5h-205v-694q0 -40 -26 -66t-66 -26t-66 26 t-26 66v694h-508v-694q0 -40 -26 -66t-66 -26t-66 26t-26 66v694h-64q-41 0 -66.5 25t-25.5 65zM1508 92v780q0 40 26.5 66.5t66.5 26.5t66 -26.5t26 -66.5v-780q0 -40 -26 -66t-66 -26t-66.5 26t-26.5 66z" />
</font>
</defs>
</svg>
